<svg xmlns="http://www.w3.org/2000/svg" width="105" height="105" viewBox="0 0 105 105"><g transform="translate(-180 -2389)"><rect width="105" height="105" transform="translate(180 2389)" fill="#80cab6"/><g transform="translate(202 2411)"><g transform="translate(29.789 7.266)"><path d="M247.211,60a1.211,1.211,0,1,0,1.211,1.211A1.211,1.211,0,0,0,247.211,60Z" transform="translate(-246 -60)" fill="#fff"/></g><path d="M31,0C14.344,0,0,14.205,0,31,0,47.7,14.252,62,31,62c16.691,0,31-14.254,31-31C62,14.21,47.661,0,31,0ZM56.079,44.388,55.4,44a1.211,1.211,0,0,0-1.211,2.1l.627.362a30.005,30.005,0,0,1-8.362,8.362l-.362-.627A1.211,1.211,0,0,0,44,55.4l.39.674A27.872,27.872,0,0,1,32.211,59.55V58.367a1.211,1.211,0,0,0-2.422,0v1.182a27.966,27.966,0,0,1-12.2-3.434L18,55.4a1.211,1.211,0,1,0-2.1-1.211l-.387.671a29.642,29.642,0,0,1-8.381-8.381l.671-.387A1.211,1.211,0,0,0,6.6,44l-.711.41a27.962,27.962,0,0,1-3.434-12.2H3.633a1.211,1.211,0,0,0,0-2.422H2.45A27.937,27.937,0,0,1,5.918,17.61L6.6,18a1.211,1.211,0,1,0,1.211-2.1l-.635-.367a29.825,29.825,0,0,1,8.369-8.36l.364.63A1.211,1.211,0,1,0,18,6.6l-.39-.674A27.869,27.869,0,0,1,29.789,2.45V3.633a1.211,1.211,0,0,0,2.422,0V2.45A27.868,27.868,0,0,1,44.388,5.921L44,6.6a1.211,1.211,0,0,0,2.1,1.211l.364-.63a29.827,29.827,0,0,1,8.369,8.36l-.635.367A1.211,1.211,0,0,0,55.4,18l.678-.391A27.937,27.937,0,0,1,59.55,29.789H58.367a1.211,1.211,0,0,0,0,2.422H59.55A27.868,27.868,0,0,1,56.079,44.388Z" fill="#fff"/><g transform="translate(34.603 7.801)"><path d="M287.236,64.449a1.211,1.211,0,0,0-.535,2.362c9.4,2.128,16.765,11.268,16.765,20.807a1.211,1.211,0,0,0,2.422,0C305.889,76.7,297.508,66.774,287.236,64.449Z" transform="translate(-285.758 -64.418)" fill="#fff"/></g><g transform="translate(12.836 12.837)"><path d="M124.285,106.008a18.164,18.164,0,1,0,18.043,18.163A18.178,18.178,0,0,0,124.285,106.008Zm11.271,7.31-5.938,3.464a1.211,1.211,0,0,1-1.822-1.045v-6.885A15.66,15.66,0,0,1,135.556,113.318Zm-15.025-4.466v6.885a1.211,1.211,0,0,1-1.821,1.045l-5.938-3.464A15.66,15.66,0,0,1,120.531,108.852Zm-12.109,15.319a15.643,15.643,0,0,1,.68-4.58l6.058,3.534a1.212,1.212,0,0,1,0,2.093l-6.058,3.534A15.642,15.642,0,0,1,108.422,124.171Zm12.109,15.319a15.66,15.66,0,0,1-7.759-4.466l5.938-3.464a1.211,1.211,0,0,1,1.821,1.045Zm7.266,0v-6.885a1.211,1.211,0,0,1,1.821-1.045l5.938,3.464A15.661,15.661,0,0,1,127.8,139.49Zm9.308-6.367-6.266-3.655a3.633,3.633,0,0,0-5.464,3.138v7.26a16.012,16.012,0,0,1-2.422,0v-7.26a3.633,3.633,0,0,0-5.464-3.137l-6.266,3.655A15.686,15.686,0,0,1,110,131.032l6.382-3.722a3.634,3.634,0,0,0,0-6.277L110,117.31a15.69,15.69,0,0,1,1.225-2.091l6.266,3.655a3.633,3.633,0,0,0,5.464-3.137v-7.261c.4-.031.808-.047,1.211-.047s.808.017,1.211.047v7.261a3.625,3.625,0,0,0,5.464,3.137l6.266-3.655a15.686,15.686,0,0,1,1.225,2.091l-6.382,3.722a3.634,3.634,0,0,0,0,6.277l6.382,3.722A15.691,15.691,0,0,1,137.1,133.123Zm-3.936-7.905a1.212,1.212,0,0,1,0-2.093l6.058-3.534a15.772,15.772,0,0,1,0,9.161Z" transform="translate(-106 -106.008)" fill="#fff"/></g><g transform="translate(27.367 27.367)"><path d="M229.633,226a3.633,3.633,0,1,0,3.633,3.633A3.637,3.637,0,0,0,229.633,226Zm0,4.844a1.211,1.211,0,1,1,1.211-1.211A1.212,1.212,0,0,1,229.633,230.844Z" transform="translate(-226 -226)" fill="#fff"/></g></g></g></svg>