<svg xmlns="http://www.w3.org/2000/svg" width="105" height="105" viewBox="0 0 105 105"><g transform="translate(-1125 -2389)"><rect width="105" height="105" transform="translate(1125 2389)" fill="#80cab6"/><g transform="translate(1148 2412)"><path d="M58.215,41.256a6.37,6.37,0,0,0-1.88-4.533l-9.18-9.18c-.01-.011-.02-.023-.031-.034s-.023-.02-.034-.031l-3.066-3.066a1.137,1.137,0,0,0-1.608,1.608l2.295,2.295-3.8,3.8a1.137,1.137,0,0,0-.331.736,8.268,8.268,0,0,1-7.735,7.735,1.138,1.138,0,0,0-.736.331l-3.8,3.8L17.3,33.692l3.8-3.8a1.137,1.137,0,0,0,.331-.736,8.281,8.281,0,0,1,7.739-7.738,1.137,1.137,0,0,0,.736-.331l3.8-3.8,1.439,1.439a1.137,1.137,0,0,0,1.608-1.608L34.5,14.885h0l-2.749-2.749C27.527,7.916,23.522,8.161,20.6,8.34c-1.735.106-2.745.138-3.336-.453L15.807,6.432l.089-.089a1.137,1.137,0,0,0,0-1.608L12.363,1.206a4.142,4.142,0,0,0-5.843,0L1.206,6.52a4.142,4.142,0,0,0,0,5.843L4.734,15.9a1.137,1.137,0,0,0,.8.333h0a1.137,1.137,0,0,0,.8-.333l.089-.089,1.455,1.455c.59.59.559,1.6.453,3.336-.179,2.924-.424,6.929,3.795,11.148L14.884,34.5h0L27.479,47.091c.01.011.019.022.029.033s.022.019.033.029l9.182,9.182a6.407,6.407,0,0,0,10.856-3.483,6.424,6.424,0,0,0,5.273-5.273,6.42,6.42,0,0,0,5.363-6.323Zm-55.4-30.5a1.868,1.868,0,0,1,0-2.627L8.128,2.814a1.869,1.869,0,0,1,2.628,0l2.728,2.725L5.539,13.483Zm7.8,9.982c.118-1.923.229-3.739-1.115-5.083L8.04,14.2,14.2,8.04l1.455,1.455c1.344,1.344,3.16,1.232,5.083,1.115,2.769-.169,5.907-.362,9.4,3.133l1.945,1.945-3.5,3.5a10.559,10.559,0,0,0-9.4,9.4l-3.5,3.5-1.945-1.945c-3.5-3.495-3.3-6.633-3.133-9.4ZM52.815,45.266A6.383,6.383,0,0,0,51.063,42,1.137,1.137,0,1,0,49.453,43.6a4.137,4.137,0,1,1-5.85,5.85A1.137,1.137,0,0,0,42,51.064a6.384,6.384,0,0,0,3.269,1.751,4.134,4.134,0,0,1-6.935,1.912l-8.409-8.409,3.5-3.5a10.545,10.545,0,0,0,9.392-9.392l3.5-3.5,8.409,8.409a4.134,4.134,0,0,1-1.912,6.935Z" fill="#fff"/><path d="M220.458,210.259a1.137,1.137,0,0,0-1.608,0l-7.458,7.458A1.137,1.137,0,1,0,213,219.325l7.458-7.458A1.137,1.137,0,0,0,220.458,210.259Z" transform="translate(-187.062 -186.057)" fill="#fff"/><path d="M252.866,244.275l-7.458,7.458a1.137,1.137,0,1,0,1.608,1.608l7.458-7.458a1.137,1.137,0,0,0-1.608-1.608Z" transform="translate(-217.21 -216.206)" fill="#fff"/><path d="M337.682,181.855a1.133,1.133,0,0,0,1.6,0,1.139,1.139,0,1,0-1.611,0Z" transform="translate(-298.986 -159.452)" fill="#fff"/></g></g></svg>