<svg xmlns="http://www.w3.org/2000/svg" width="105" height="105" viewBox="0 0 105 105"><g transform="translate(-810 -2527)"><rect width="105" height="105" transform="translate(810 2527)" fill="#80cab6"/><g transform="translate(833.667 2553.975)"><path d="M60.135,0H55.343a1.2,1.2,0,0,0-1.2,1.2V9.823H51.151V3.115a1.2,1.2,0,0,0-1.2-1.2H34.38a1.2,1.2,0,0,0-1.2,1.2V5.031h-9.1V1.2A1.2,1.2,0,0,0,22.88,0h-12.1a1.2,1.2,0,0,0-1.2,1.2V9.823h-2.4V1.2A1.2,1.2,0,0,0,5.99,0H1.2A1.2,1.2,0,0,0,0,1.2V60.135a1.2,1.2,0,0,0,1.2,1.2H5.99a1.2,1.2,0,0,0,1.2-1.2V56.541H54.146v3.594a1.2,1.2,0,0,0,1.2,1.2h4.792a1.2,1.2,0,0,0,1.2-1.2V1.2A1.2,1.2,0,0,0,60.135,0ZM4.792,58.937H2.4V2.4h2.4ZM35.578,6.229V4.312H48.755v5.51H35.578Zm-11.5,1.2h9.1v2.4h-9.1ZM11.979,2.4h9.7V4.911h-9.7Zm0,4.911h9.7V9.823h-9.7ZM54.146,54.146H7.187v-2.4H54.146ZM14.615,44.562H11.979V40.969H23v8.385H11.979v-2.4h2.635a1.2,1.2,0,0,0,0-2.4ZM25.4,49.354v-2.4h8.385v2.4Zm10.781,0v-5.51H49.354v5.51Zm17.969,0h-2.4V42.646a1.2,1.2,0,0,0-1.2-1.2H34.979a1.2,1.2,0,0,0-1.2,1.2v1.917H25.4V39.771a1.2,1.2,0,0,0-1.2-1.2H10.781a1.2,1.2,0,0,0-1.2,1.2v9.583h-2.4V36.177H54.146Zm0-15.573H7.187v-2.4H54.146ZM11.979,28.989V21.8H23v7.187Zm13.417,0v-2.4h9.583v2.4Zm16.771,0v-5.51h7.187v5.51Zm11.979,0h-2.4V22.281a1.2,1.2,0,0,0-1.2-1.2H40.969a1.2,1.2,0,0,0-1.2,1.2v6.708h-2.4V25.4a1.2,1.2,0,0,0-1.2-1.2H25.4V20.6a1.2,1.2,0,0,0-1.2-1.2H10.781a1.2,1.2,0,0,0-1.2,1.2v8.385h-2.4V17.01H54.146Zm0-14.375H7.187v-2.4H54.146Zm4.792,44.323h-2.4V2.4h2.4Z" fill="#fff"/><g transform="translate(18.208 44.562)"><path d="M153.2,372a1.2,1.2,0,1,0,1.2,1.2A1.2,1.2,0,0,0,153.2,372Z" transform="translate(-152 -372)" fill="#fff"/></g></g></g></svg>