<svg xmlns="http://www.w3.org/2000/svg" width="105" height="105" viewBox="0 0 105 105"><g transform="translate(-1125 -2527)"><rect width="105" height="105" transform="translate(1125 2527)" fill="#80cab6"/><g transform="translate(1143 2544.994)"><g transform="translate(0 0.006)"><path d="M69.065,17.7a3.473,3.473,0,0,0-2.811-1.1l-3.2.236A18.213,18.213,0,0,0,59.8,8.959l.469-.469a3.352,3.352,0,0,0,0-4.74L57.5.986a3.356,3.356,0,0,0-4.74,0l-.974.974c-.177-.071-.355-.138-.535-.2-3.564-1.217-7.183.893-9.591,2.877a66.008,66.008,0,0,0-9.086,9.222c-.189.23-.382.463-.577.7-2.431,2.924-5.456,6.563-3.594,10.92l0,.009a.627.627,0,0,1-.12.7l-2.066,2.066a.619.619,0,0,1-.69.123l-.017-.007a7.354,7.354,0,0,0-6.1.237,15.506,15.506,0,0,0-2.6,1.587c-1,.735-1.962,1.564-2.919,2.349a66.01,66.01,0,0,0-9.222,9.086C2.695,44.029.585,47.648,1.8,51.212c.062.18.129.359.2.535l-1.02,1.02a3.352,3.352,0,0,0,0,4.74l2.763,2.763a3.352,3.352,0,0,0,4.74,0L9,59.756a20.077,20.077,0,0,0,4.837,2.517,15.91,15.91,0,0,0,2.4.638c.2.037.4.066.6.091l-.24,3.257A3.489,3.489,0,0,0,20.062,70a3.54,3.54,0,0,0,.514-.038l1.9-.28a3.489,3.489,0,0,0,2.906-4.171l-.94-4.46a18.087,18.087,0,0,0,1.528-1.127A30.967,30.967,0,0,0,28.95,57.1a37.269,37.269,0,0,0,5.47-7.216c1.41-2.5,1.519-5.423.326-8.688a1.026,1.026,0,1,0-1.928.7c.978,2.676.915,5.023-.186,6.976a35.286,35.286,0,0,1-5.179,6.82,18.685,18.685,0,0,1-6.082,4.747,7.091,7.091,0,0,1-3.044.637c-4.634-.158-9.023-3.02-12.023-6.37a12.284,12.284,0,0,1-2.527-4.134c-.973-2.819.731-5.521,2.484-7.649a63.991,63.991,0,0,1,8.939-8.8c2.506-2.054,5.946-5.505,9.507-3.873l.007,0a2.66,2.66,0,0,0,2.957-.555l2.066-2.066a2.668,2.668,0,0,0,.556-2.953l0-.011c-1.368-3.2,1-6.047,3.286-8.8.2-.238.395-.475.586-.708a63.991,63.991,0,0,1,8.8-8.939c2-1.652,4.955-3.429,7.623-2.519,3.111,1.062,5.652,3.863,7.236,6.025a15.909,15.909,0,0,1,3.294,8.559c.066,1.939-.83,4.015-2.739,6.345a29,29,0,0,1-2.645,2.781,35.291,35.291,0,0,1-6.82,5.179,7.44,7.44,0,0,1-4.822.755c-2.646-.415-4.776-1.805-7.026-3.125a4.974,4.974,0,0,0-6.807,6.807l.432.737a1.026,1.026,0,1,0,1.77-1.038l-.433-.738a2.922,2.922,0,0,1,4-4c2.32,1.36,2.528,1.475,2.6,1.513,4.247,2.344,8.154,2.646,11.3.874A36.345,36.345,0,0,0,59.97,25.932q.613-.748,1.106-1.476l4.435.935a3.464,3.464,0,0,0,.715.074,3.487,3.487,0,0,0,3.456-2.981l.28-1.9a3.471,3.471,0,0,0-.9-2.883ZM18.635,66.409l.247-3.348a10.682,10.682,0,0,0,3.687-.962l.809,3.839a1.437,1.437,0,0,1-1.2,1.718l-1.9.28a1.437,1.437,0,0,1-1.642-1.527Zm-11.286-7.9-.315.315a1.3,1.3,0,0,1-1.838,0L2.433,56.057a1.3,1.3,0,0,1,0-1.838l.545-.545a20.05,20.05,0,0,0,4.371,4.831ZM58.816,7.038l-.269.269a20.042,20.042,0,0,0-4.831-4.371l.5-.5a1.3,1.3,0,0,1,1.838,0L58.816,5.2a1.3,1.3,0,0,1,0,1.838Zm9.116,13.243-.28,1.9a1.437,1.437,0,0,1-1.718,1.2l-3.771-.795a9.541,9.541,0,0,0,1-3.709l3.24-.239a1.437,1.437,0,0,1,1.527,1.642Z" transform="translate(0 -0.006)" fill="#fff"/><path d="M68.465,245.622c-2.154-2.069-4.78-2.051-7.806.055a36.918,36.918,0,0,0-8.815,8.689,8.653,8.653,0,0,0-1.587,3.676c-.393,2.583,1.344,4.542,2.494,5.838a21.141,21.141,0,0,0,3.939,3.528,12.358,12.358,0,0,0,2.68,1.4,8.646,8.646,0,0,0,1.49.4,6.825,6.825,0,0,0,4.982-1.13,22.806,22.806,0,0,0,3.262-2.636c1.829-1.77,4.313-4.5,4.765-7.792a9.673,9.673,0,0,0-.577-4.481A19.467,19.467,0,0,0,68.465,245.622Zm3.371,11.751c-.365,2.659-2.549,5.038-4.159,6.6a20.749,20.749,0,0,1-2.966,2.4c-2.469,1.633-5.011.685-7.22-.907a19.805,19.805,0,0,1-3.2-2.943c-1.23-1.387-2.23-2.658-2-4.168a6.672,6.672,0,0,1,1.238-2.806,35.293,35.293,0,0,1,8.307-8.183c2.229-1.551,3.788-1.629,5.212-.26a17.347,17.347,0,0,1,4.3,6.725A7.733,7.733,0,0,1,71.836,257.373Z" transform="translate(-43.337 -210.714)" fill="#fff"/><path d="M255.889,53.186a6.67,6.67,0,0,1,2.806-1.238,3.009,3.009,0,0,1,1.582.2,1.026,1.026,0,0,0,.745-1.912,5.081,5.081,0,0,0-2.635-.312,8.652,8.652,0,0,0-3.676,1.587,36.916,36.916,0,0,0-8.689,8.815c-2.106,3.026-2.124,5.652-.055,7.806a19.465,19.465,0,0,0,7.549,4.827,10.8,10.8,0,0,0,3.461.646,7.488,7.488,0,0,0,1.02-.069c3.288-.452,6.021-2.936,7.792-4.765a22.8,22.8,0,0,0,2.636-3.262A6.848,6.848,0,0,0,269.654,62c.132-3.425-2.372-6.629-4.5-8.714a1.026,1.026,0,1,0-1.437,1.465c1.5,1.469,3.992,4.355,3.884,7.17a4.845,4.845,0,0,1-.892,2.454,20.749,20.749,0,0,1-2.4,2.966c-1.558,1.61-3.938,3.794-6.6,4.159a7.729,7.729,0,0,1-3.546-.488,17.347,17.347,0,0,1-6.725-4.3c-1.369-1.425-1.291-2.984.26-5.213a35.294,35.294,0,0,1,8.183-8.307Z" transform="translate(-211.01 -43.047)" fill="#fff"/></g></g></g></svg>