<svg xmlns="http://www.w3.org/2000/svg" width="147" height="147" viewBox="0 0 147 147"><g transform="translate(-254 -1237)"><circle cx="73.5" cy="73.5" r="73.5" transform="translate(254 1237)" fill="#80cab6"/><g transform="translate(282 1265)"><circle cx="23.976" cy="23.976" r="23.976" transform="translate(21.524 21.524)" fill="#6cc5ef"/><path d="M32.862,15.64a25.017,25.017,0,0,0-3.312.264,23.991,23.991,0,0,1,0,47.424,24.516,24.516,0,0,0,3.591.264,23.976,23.976,0,1,0,0-47.952Z" transform="translate(12.359 5.884)" fill="#3db3ea"/><path d="M21.048,21.65A23.947,23.947,0,0,0,15.64,36.818a23.345,23.345,0,0,0,.234,3.356H29.9a3.415,3.415,0,0,0,0-6.829H25.635a2.433,2.433,0,1,1,0-4.866h8.4a3.415,3.415,0,0,0,0-6.829Z" transform="translate(5.884 8.682)" fill="#9af39a"/><path d="M38.085,21.65h3.84a3.415,3.415,0,1,1,0,6.829h-3.84a3.415,3.415,0,1,1,0-6.829Z" transform="translate(14.743 8.682)" fill="#9af39a"/><path d="M35.575,31.77a2.418,2.418,0,0,0,0,4.822,2.4,2.4,0,0,1,0,4.807h-4.4a2.418,2.418,0,0,0,0,4.822H45.145a2.418,2.418,0,0,0,0-4.822,2.418,2.418,0,0,1,0-4.822h4.4a2.4,2.4,0,1,0,0-4.807Z" transform="translate(12.079 13.393)" fill="#9af39a"/><path d="M39.79,21.67a24.812,24.812,0,0,1,2.931,4.6,3.327,3.327,0,0,0,.308-1.187A3.4,3.4,0,0,0,39.79,21.67Zm5.378,14.919v.22a25.032,25.032,0,0,1-.41,4.4,2.4,2.4,0,0,0,.41-4.66ZM42.4,48.005a25.353,25.353,0,0,1-1.759,2.828,2.389,2.389,0,0,0,1.8-2.3,2.931,2.931,0,0,0,0-.5Z" transform="translate(17.126 8.691)" fill="#60e977"/><g transform="translate(3 3)"><path d="M40.081,14.64A25.441,25.441,0,1,0,65.523,40.081,25.441,25.441,0,0,0,40.081,14.64ZM22.261,26.364H34.5a1.949,1.949,0,0,1,0,3.9H26.1a3.9,3.9,0,1,0,0,7.8h4.265a1.949,1.949,0,0,1,0,3.9H17.659c0-.63-.088-1.26-.088-1.891a22.378,22.378,0,0,1,4.69-13.688ZM40.081,62.592A22.554,22.554,0,0,1,18.1,44.9H30.365a4.88,4.88,0,0,0,0-9.76H26.1a.967.967,0,0,1,0-1.934h8.4a4.88,4.88,0,0,0,0-9.76H24.957A22.5,22.5,0,1,1,40.081,62.592Z" transform="translate(2.419 2.419)" fill="#16244d"/><path d="M38.55,30.41h3.84a4.88,4.88,0,0,0,0-9.76H38.55a4.88,4.88,0,0,0,0,9.76Zm0-6.829h3.84a1.949,1.949,0,1,1,0,3.9H38.55a1.949,1.949,0,0,1,0-3.9Z" transform="translate(11.277 5.216)" fill="#16244d"/><path d="M50.138,30.775H36.171A3.87,3.87,0,1,0,36,38.513h.117a.923.923,0,0,1,.938.938.938.938,0,0,1-.938.938H31.789a3.884,3.884,0,1,0,0,7.753H45.741a3.884,3.884,0,0,0,0-7.753.923.923,0,0,1-.938-.938.938.938,0,0,1,.938-.953h4.4a3.869,3.869,0,0,0,0-7.738Zm0,4.807h-4.4a3.884,3.884,0,0,0,0,7.753.923.923,0,0,1,.938.938.938.938,0,0,1-.938.953H31.789a.953.953,0,0,1-.953-.953.938.938,0,0,1,.953-.938h4.572a3.869,3.869,0,0,0,0-7.723h-.176a.938.938,0,0,1-.938-.953.923.923,0,0,1,.938-.938H50.138a.938.938,0,0,1,0,1.876Z" transform="translate(8.483 9.923)" fill="#16244d"/><path d="M34.93,52.588a1.466,1.466,0,0,0-2.081,0l-4.4,4.4a1.466,1.466,0,1,0,2.066,2.066l1.905-1.891v6.492a1.466,1.466,0,0,0,2.931,0V57.16l1.861,1.847a1.466,1.466,0,0,0,2.066-2.066Z" transform="translate(8.61 19.882)" fill="#16244d"/><path d="M32.835,15.53a1.466,1.466,0,0,0,2.081,0l4.4-4.4a1.466,1.466,0,0,0-2.066-2.066l-1.905,1.891V4.466a1.466,1.466,0,0,0-2.931,0v6.492L30.549,9.111a1.466,1.466,0,1,0-2.066,2.066Z" transform="translate(8.624 -3)" fill="#16244d"/><path d="M15.53,32.849l-4.4-4.4a1.466,1.466,0,1,0-2.066,2.066l1.891,1.905H4.466a1.466,1.466,0,0,0,0,2.931h6.492L9.111,37.217a1.461,1.461,0,0,0,2.066,2.066l4.4-4.4A1.466,1.466,0,0,0,15.53,32.849Z" transform="translate(-3 8.61)" fill="#16244d"/><path d="M63.666,32.41H57.174l1.847-1.861a1.466,1.466,0,1,0-2.066-2.066l-4.4,4.4a1.466,1.466,0,0,0,0,2.081l4.4,4.4a1.461,1.461,0,0,0,2.066-2.066l-1.847-1.949h6.492a1.466,1.466,0,0,0,0-2.931Z" transform="translate(19.868 8.624)" fill="#16244d"/><path d="M19.721,46H13.566a1.466,1.466,0,0,0,0,2.931h2.623l-4.6,4.587A1.472,1.472,0,0,0,13.669,55.6l4.587-4.66v2.623a1.466,1.466,0,1,0,2.931,0v-6.1A1.466,1.466,0,0,0,19.721,46Z" transform="translate(0.796 17.017)" fill="#16244d"/><path d="M47.466,21.186h6.155a1.466,1.466,0,0,0,0-2.931H50.939l4.6-4.587a1.472,1.472,0,1,0-2.081-2.081l-4.528,4.66V13.624a1.466,1.466,0,0,0-2.931,0v6.1A1.466,1.466,0,0,0,47.466,21.186Z" transform="translate(17.017 0.797)" fill="#16244d"/><path d="M16.247,18.255H13.624a1.466,1.466,0,1,0,0,2.931h6.1a1.466,1.466,0,0,0,1.466-1.466V13.565a1.466,1.466,0,0,0-2.931,0v2.623l-4.587-4.6a1.472,1.472,0,0,0-2.081,2.081Z" transform="translate(0.797 0.797)" fill="#16244d"/><path d="M50.939,48.931h2.623a1.466,1.466,0,1,0,0-2.931h-6.1A1.466,1.466,0,0,0,46,47.466v6.155a1.466,1.466,0,0,0,2.931,0V50.939l4.587,4.6A1.472,1.472,0,1,0,55.6,53.459Z" transform="translate(17.017 17.017)" fill="#16244d"/></g></g></g></svg>