<svg xmlns="http://www.w3.org/2000/svg" width="147" height="147" viewBox="0 0 147 147"><g transform="translate(-569 -1237)"><circle cx="73.5" cy="73.5" r="73.5" transform="translate(569 1237)" fill="#80cab6"/><g transform="translate(570.568 1270)"><path d="M136.846,7.5h-28.4A10.856,10.856,0,0,0,97.591,18.356v28.4a10.811,10.811,0,0,0,2.63,7.08l1.594-4.1a2.632,2.632,0,0,1,2.453-1.678h36.758a2.632,2.632,0,0,1,2.453,1.678l1.594,4.1a10.811,10.811,0,0,0,2.63-7.08v-28.4A10.856,10.856,0,0,0,136.846,7.5Z" transform="translate(-50.644 -6.314)" fill="#dff6fd"/><g transform="translate(46.947 1.186)"><path d="M102.441,46.755v-28.4a6.013,6.013,0,0,1,6.007-6.007h.354a10.845,10.845,0,0,1,9.043-4.85h-9.4A10.856,10.856,0,0,0,97.591,18.356v28.4a10.811,10.811,0,0,0,2.63,7.08l1.594-4.1a2.626,2.626,0,0,1,.9-1.172A5.99,5.99,0,0,1,102.441,46.755Z" transform="translate(-97.591 -7.5)" fill="#c8effe"/></g><path d="M130.078,73.87h36.758a2.627,2.627,0,0,1,1.548.506,5.982,5.982,0,0,0,.279-1.809v-28.4a6.013,6.013,0,0,0-6.007-6.007h-28.4a6.013,6.013,0,0,0-6.007,6.007v28.4a5.982,5.982,0,0,0,.279,1.809,2.628,2.628,0,0,1,1.548-.506Z" transform="translate(-76.454 -32.124)" fill="#99e6fc"/><path d="M130.077,73.87h5a6,6,0,0,1-.144-1.3v-28.4a6.013,6.013,0,0,1,6.007-6.007h-6.683a6.013,6.013,0,0,0-6.007,6.007v28.4a5.982,5.982,0,0,0,.279,1.809,2.629,2.629,0,0,1,1.548-.506Z" transform="translate(-76.453 -32.124)" fill="#62dbfb"/><g transform="translate(55.308 22.144)"><g transform="translate(12.815 3.016)"><g transform="translate(0.99 5.877)"><path d="M237.731,196.225h5.779v10.708h-5.779Z" transform="translate(-237.731 -196.225)" fill="#fff"/></g><g transform="translate(0.99 5.877)"><path d="M237.731,196.225h2.646v10.708h-2.646Z" transform="translate(-237.731 -196.225)" fill="#dff6fd"/></g><g transform="translate(0.99 10.83)"><path d="M237.731,227.542h5.779V233.3h-5.779Z" transform="translate(-237.731 -227.542)" fill="#fac600"/></g><g transform="translate(0.99 10.83)"><path d="M237.731,227.542h2.646V233.3h-2.646Z" transform="translate(-237.731 -227.542)" fill="#e8b800"/></g><g transform="translate(0)"><path d="M238.489,165.108h-6.272a.743.743,0,0,1-.743-.743v-4.552a.743.743,0,0,1,.743-.743h6.272a.743.743,0,0,1,.743.743v4.552A.743.743,0,0,1,238.489,165.108Z" transform="translate(-231.473 -159.069)" fill="#fe3d97"/></g><path d="M235.5,164.364v-4.552a.743.743,0,0,1,.743-.743h-4.029a.743.743,0,0,0-.743.743v4.552a.743.743,0,0,0,.743.743h4.029A.744.744,0,0,1,235.5,164.364Z" transform="translate(-231.472 -159.069)" fill="#e41e7f"/></g><path d="M156.432,190.291l3.306-12.34-5.582-1.5-3.707,13.835Z" transform="translate(-150.449 -170.69)" fill="#fff"/><path d="M153.138,190.291l3.527-13.163-2.509-.672-3.707,13.835Z" transform="translate(-150.449 -170.69)" fill="#dff6fd"/><path d="M156.432,215.756l2.024-7.555-5.582-1.5-2.425,9.051Z" transform="translate(-150.449 -196.154)" fill="#fac600"/><path d="M153.138,215.756l2.245-8.378-2.509-.672-2.425,9.051Z" transform="translate(-150.449 -196.154)" fill="#e8b800"/><g transform="translate(2.876)"><path d="M175.242,147.482l-6.059-1.623a.743.743,0,0,1-.526-.91l1.178-4.4a.743.743,0,0,1,.91-.526l6.059,1.623a.743.743,0,0,1,.526.91l-1.178,4.4A.743.743,0,0,1,175.242,147.482Z" transform="translate(-168.633 -140.001)" fill="#fe3d97"/></g><g transform="translate(2.876)"><path d="M172.484,145.974l1.178-4.4a.743.743,0,0,1,.91-.526l-3.826-1.025a.743.743,0,0,0-.91.526l-1.178,4.4a.743.743,0,0,0,.526.91l3.826,1.025A.743.743,0,0,1,172.484,145.974Z" transform="translate(-168.632 -140.001)" fill="#e41e7f"/></g><g transform="translate(21.79 0)"><path d="M312.11,190.291,308.4,176.456l-5.582,1.5,3.306,12.34Z" transform="translate(-300.51 -170.69)" fill="#fff"/><path d="M309.131,194.254l-3.508-13.091-2.8.751,3.306,12.34Z" transform="translate(-300.51 -174.652)" fill="#dff6fd"/><path d="M318.933,215.756l-2.425-9.051-5.583,1.5,2.024,7.555Z" transform="translate(-307.333 -196.154)" fill="#fac600"/><path d="M315.954,219.718l-2.226-8.306-2.8.751,2.024,7.555Z" transform="translate(-307.333 -200.117)" fill="#e8b800"/><path d="M296.385,145.86l-6.059,1.623a.743.743,0,0,1-.91-.526l-1.178-4.4a.743.743,0,0,1,.526-.91l6.059-1.623a.743.743,0,0,1,.91.526l1.178,4.4A.743.743,0,0,1,296.385,145.86Z" transform="translate(-288.213 -140.002)" fill="#fe3d97"/><g transform="translate(0 0.625)"><path d="M293.238,149.26l-1.178-4.4a.743.743,0,0,1,.526-.91l-3.821,1.024a.743.743,0,0,0-.526.91l1.178,4.4a.743.743,0,0,0,.91.526l3.821-1.024A.743.743,0,0,1,293.238,149.26Z" transform="translate(-288.214 -143.953)" fill="#e41e7f"/></g></g></g><g transform="translate(48.108 41.745)"><path d="M152.721,273.478l-3.062-7.874a2.632,2.632,0,0,0-2.453-1.678H110.448a2.632,2.632,0,0,0-2.453,1.678l-3.062,7.874Z" transform="translate(-104.932 -263.926)" fill="#766e6e"/><path d="M112.194,273.478l3.062-7.874a2.632,2.632,0,0,1,2.453-1.678h-7.261A2.632,2.632,0,0,0,108,265.6l-3.062,7.874Z" transform="translate(-104.933 -263.926)" fill="#5b5555"/></g><path d="M103.141,324.317H53.492a8.56,8.56,0,0,0-8.56,8.56V347.5H111.7V332.877A8.561,8.561,0,0,0,103.141,324.317Z" transform="translate(-6.314 -273.02)" fill="#dff6fd"/><g transform="translate(38.618 51.298)"><path d="M52.851,332.878a8.56,8.56,0,0,1,8.56-8.56H53.492a8.56,8.56,0,0,0-8.56,8.56V347.5h7.919Z" transform="translate(-44.932 -324.318)" fill="#c8effe"/></g><g transform="translate(38.618 74.48)"><path d="M47.3,476.2h62.025a2.373,2.373,0,0,0,2.373-2.373v-2.945H44.931v2.945A2.373,2.373,0,0,0,47.3,476.2Z" transform="translate(-44.931 -470.882)" fill="#01c0fa"/></g><g transform="translate(38.618 74.48)"><path d="M52.85,473.827v-2.945H44.931v2.945A2.373,2.373,0,0,0,47.3,476.2h8.056A2.493,2.493,0,0,1,52.85,473.827Z" transform="translate(-44.931 -470.882)" fill="#08a9f1"/></g><g transform="translate(61.981 74.48)"><path d="M192.637,476.2h20.044l-2.586-5.317H195.223Z" transform="translate(-192.637 -470.882)" fill="#6cf5c2"/></g><g transform="translate(61.981 74.48)"><path d="M195.222,470.882l-2.586,5.317h5.32l2.586-5.317Z" transform="translate(-192.636 -470.882)" fill="#05e39c"/></g><g transform="translate(54.868 56.379)"><path d="M147.669,364.824v-7.59a.791.791,0,0,1,.791-.791h32.688a.791.791,0,0,1,.791.791v7.59a.791.791,0,0,1-.791.791H148.46A.791.791,0,0,1,147.669,364.824Z" transform="translate(-147.669 -356.443)" fill="#05e39c"/></g><g transform="translate(54.868 56.379)"><path d="M154.365,364.824v-7.59a.791.791,0,0,1,.791-.791h-6.7a.791.791,0,0,0-.791.791v7.59a.791.791,0,0,0,.791.791h6.7A.791.791,0,0,1,154.365,364.824Z" transform="translate(-147.669 -356.443)" fill="#0ed290"/></g><g transform="translate(43.287 57.464)"><g transform="translate(49.95)"><circle cx="3.741" cy="3.741" r="3.741" fill="#01d0fb"/></g><g transform="translate(49.949)"><path d="M393.764,367.046a3.74,3.74,0,0,1,1.982-3.3,3.741,3.741,0,1,0,0,6.6A3.74,3.74,0,0,1,393.764,367.046Z" transform="translate(-390.245 -363.305)" fill="#01c0fa"/></g><circle cx="3.741" cy="3.741" r="3.741" fill="#01d0fb"/><path d="M77.969,367.046a3.74,3.74,0,0,1,1.982-3.3,3.741,3.741,0,1,0,0,6.6A3.74,3.74,0,0,1,77.969,367.046Z" transform="translate(-74.45 -363.305)" fill="#01c0fa"/></g><g transform="translate(37.432 0)"><path d="M96.828,50.111h-.119l-.929-2.387a11.969,11.969,0,0,0,2.464-7.282v-28.4A12.056,12.056,0,0,0,86.2,0H57.8A12.056,12.056,0,0,0,45.761,12.042v28.4a11.969,11.969,0,0,0,2.464,7.282L47.3,50.111h-.119a9.757,9.757,0,0,0-9.746,9.746V77.424a3.563,3.563,0,0,0,3.559,3.559h51.1a1.186,1.186,0,1,0,0-2.373H82.767l-1.432-2.945H104.2v1.758a1.188,1.188,0,0,1-1.186,1.186H97.627a1.186,1.186,0,0,0,0,2.373h5.389a3.563,3.563,0,0,0,3.559-3.559V59.858A9.758,9.758,0,0,0,96.828,50.111Zm-48.694-9.67v-28.4a9.681,9.681,0,0,1,9.67-9.67H86.2a9.681,9.681,0,0,1,9.67,9.67v28.4a9.607,9.607,0,0,1-1.149,4.565l-.783-2.013a3.842,3.842,0,0,0-.688-1.135,7.161,7.161,0,0,0,.143-1.417V23.884a1.186,1.186,0,0,0-2.373,0V40.442c0,.057,0,.114-.006.171a3.88,3.88,0,0,0-.635-.053h-.774L86.422,28.668a1.93,1.93,0,0,0,.52-1.883l-1.178-4.4A1.93,1.93,0,0,0,83.4,21.024l-6.059,1.623a1.93,1.93,0,0,0-1.394,1.507,1.915,1.915,0,0,0-.809-.18H68.867a1.914,1.914,0,0,0-.809.18,1.931,1.931,0,0,0-1.394-1.507l-6.059-1.623a1.93,1.93,0,0,0-2.363,1.364l-1.178,4.4a1.93,1.93,0,0,0,.52,1.883L54.4,40.559h-.774a3.88,3.88,0,0,0-.635.053c0-.057-.006-.113-.006-.171v-28.4a4.826,4.826,0,0,1,4.82-4.82H86.2a4.826,4.826,0,0,1,4.82,4.82v6.305a1.186,1.186,0,1,0,2.373,0V12.042A7.2,7.2,0,0,0,86.2,4.849H57.8a7.2,7.2,0,0,0-7.193,7.193v28.4a7.163,7.163,0,0,0,.143,1.417,3.843,3.843,0,0,0-.688,1.135l-.783,2.013a9.605,9.605,0,0,1-1.149-4.565Zm19.793-8.3v8.42h-5.09l2.621-9.781a1.924,1.924,0,0,0,1.392-1.371l.087-.325v1.373a1.93,1.93,0,0,0,.99,1.684Zm-3.254-3.774-5.2-1.394.949-3.542,5.2,1.394Zm-4.861,1.154L63.1,30.4l-.626,2.337-3.291-.882Zm2.05,5.51-1.482,5.53H56.854l1.718-6.411Zm28.519,7.9a1.437,1.437,0,0,1,1.348.922l2.434,6.258H49.843l2.434-6.258a1.437,1.437,0,0,1,1.348-.922ZM70.3,34.8V32.385h3.407V34.8Zm3.407,2.373v3.382H70.3V37.177Zm-4.4-7.164V26.346H74.7v3.666Zm12.22,2.725L80.9,30.4l3.291-.882.626,2.337Zm3.9,1.41,1.718,6.411H83.625l-1.482-5.53Zm-6.1-5.782-.949-3.541,5.2-1.394.949,3.542Zm-.785,2.413,2.621,9.781h-5.09v-8.42a1.93,1.93,0,0,0,.99-1.684V29.082l.087.325a1.925,1.925,0,0,0,1.392,1.371ZM61.239,78.611H40.991A1.188,1.188,0,0,1,39.8,77.424V75.666H62.671Zm2.638,0,1.432-2.945H78.7l1.432,2.945ZM104.2,73.294H39.8V59.858a7.382,7.382,0,0,1,7.374-7.374H96.828a7.382,7.382,0,0,1,7.374,7.374Z" transform="translate(-37.432 0)"/><path d="M174.834,348.943H155.959a1.186,1.186,0,1,0,0,2.373h18.479v6.8h-31.9v-6.8h7.882a1.186,1.186,0,1,0,0-2.373h-8.277a1.979,1.979,0,0,0-1.977,1.977v7.59a1.979,1.979,0,0,0,1.977,1.977h32.688a1.979,1.979,0,0,0,1.977-1.977v-7.59A1.979,1.979,0,0,0,174.834,348.943Z" transform="translate(-123.919 -293.75)"/><path d="M387.672,355.8a4.927,4.927,0,1,0,4.927,4.927A4.933,4.933,0,0,0,387.672,355.8Zm0,7.482a2.555,2.555,0,1,1,2.555-2.555A2.558,2.558,0,0,1,387.672,363.287Z" transform="translate(-328.127 -299.527)"/><path d="M71.878,355.8a4.927,4.927,0,1,0,4.927,4.927A4.933,4.933,0,0,0,71.878,355.8Zm0,7.482a2.555,2.555,0,1,1,2.555-2.555A2.558,2.558,0,0,1,71.878,363.287Z" transform="translate(-62.282 -299.527)"/><path d="M142.89,431.725h-1.534a1.186,1.186,0,1,0,0,2.373h1.534a1.186,1.186,0,0,0,0-2.373Z" transform="translate(-123.919 -363.439)"/><path d="M177.383,431.725h-1.534a1.186,1.186,0,0,0,0,2.373h1.534a1.186,1.186,0,0,0,0-2.373Z" transform="translate(-152.956 -363.439)"/><path d="M211.877,431.725h-1.534a1.186,1.186,0,0,0,0,2.373h1.534a1.186,1.186,0,0,0,0-2.373Z" transform="translate(-181.994 -363.439)"/><path d="M246.371,431.725h-1.534a1.186,1.186,0,1,0,0,2.373h1.534a1.186,1.186,0,0,0,0-2.373Z" transform="translate(-211.032 -363.439)"/><path d="M280.864,431.725h-1.534a1.186,1.186,0,1,0,0,2.373h1.534a1.186,1.186,0,0,0,0-2.373Z" transform="translate(-240.07 -363.439)"/><path d="M315.358,431.725h-1.534a1.186,1.186,0,0,0,0,2.373h1.534a1.186,1.186,0,0,0,0-2.373Z" transform="translate(-269.108 -363.439)"/><path d="M349.851,431.725h-1.534a1.186,1.186,0,0,0,0,2.373h1.534a1.186,1.186,0,0,0,0-2.373Z" transform="translate(-298.145 -363.439)"/><path d="M75.619,431.725H68.136a1.186,1.186,0,0,0,0,2.373h7.482a1.186,1.186,0,0,0,0-2.373Z" transform="translate(-62.281 -363.439)"/><path d="M391.414,431.725h-7.482a1.186,1.186,0,0,0,0,2.373h7.482a1.186,1.186,0,0,0,0-2.373Z" transform="translate(-328.127 -363.439)"/><path d="M212.769,77.5H195.686a1.186,1.186,0,1,0,0,2.373h17.082a1.186,1.186,0,1,0,0-2.373Z" transform="translate(-169.656 -65.242)"/></g></g></g></svg>