<svg xmlns="http://www.w3.org/2000/svg" width="147" height="147" viewBox="0 0 147 147"><g transform="translate(-884 -1237)"><circle cx="73.5" cy="73.5" r="73.5" transform="translate(884 1237)" fill="#80cab6"/><g transform="translate(917 1266.844)"><g transform="translate(1.208 4.364)"><path d="M84.99,356.276H12.14l-4.64,6.4v11.1l3.146,2.565H82.063l5.017-2.51,0-11.1Z" transform="translate(-7.5 -300.596)" fill="#b3e5ee"/><g transform="translate(0 47.291)"><path d="M87.08,445.746l0,4.547a2,2,0,0,1-2,2H9.5a2,2,0,0,1-2-2v-4.6l.917-.42a13.882,13.882,0,0,1,12.335.372,13.888,13.888,0,0,0,11.07.878L42.7,442.768a13.879,13.879,0,0,1,9.059,0l10.881,3.754a13.9,13.9,0,0,0,11.072-.878,13.885,13.885,0,0,1,12.335-.372Z" transform="translate(-7.5 -419.808)" fill="#86d7e5"/><path d="M87.084,319.042v-9.958a1.776,1.776,0,0,0-1.034-1.613,13.845,13.845,0,0,0-12.316.372,13.855,13.855,0,0,1-11.055.878l-10.865-3.754a13.834,13.834,0,0,0-9.044,0l-10.865,3.754a13.852,13.852,0,0,1-11.055-.878,13.842,13.842,0,0,0-12.316-.372A1.776,1.776,0,0,0,7.5,309.084v9.907l.917-.42a13.842,13.842,0,0,1,12.316.372,13.852,13.852,0,0,0,11.055.878l10.865-3.754a13.833,13.833,0,0,1,9.044,0l10.865,3.754a13.855,13.855,0,0,0,11.055-.878,13.845,13.845,0,0,1,12.316-.372Z" transform="translate(-7.5 -304.208)" fill="#d9f2f6"/></g><g transform="translate(7.821 0)"><g transform="translate(14.032 22.578)"><path d="M162.978,151.63a2.961,2.961,0,0,0-4.113.016c-4.678,4.556-15.748,16.16-15.715,23.944a17.9,17.9,0,0,0,.714,4.938l2.488,2.514h27.793l4.044-2.538a17.87,17.87,0,0,0,.707-5.063C178.861,167.657,167.695,156.146,162.978,151.63Z" transform="translate(-143.15 -150.808)" fill="#b3e5ee"/><path d="M194.522,338.589,185.01,345l.163,2.16a17.875,17.875,0,0,0,21.972-.032l1.184-2.977Z" transform="translate(-178.266 -308.337)" fill="#65cfdf"/><path d="M151.557,180.528a17.9,17.9,0,0,1-.714-4.938c-.029-6.922,8.719-16.863,13.948-22.184-.669-.67-1.283-1.268-1.814-1.776a2.961,2.961,0,0,0-4.113.016c-4.678,4.556-15.748,16.16-15.715,23.944a17.9,17.9,0,0,0,.714,4.938l2.488,2.514H152.5A17.723,17.723,0,0,1,151.557,180.528Z" transform="translate(-143.15 -150.808)" fill="#86d7e5"/><path d="M192.867,367.657a17.97,17.97,0,0,1-4.187-4.633l-3.67,2.473.163,2.16A17.916,17.916,0,0,0,199.991,371,17.8,17.8,0,0,1,192.867,367.657Z" transform="translate(-178.266 -328.836)" fill="#58c5da"/><path d="M180.192,308.72a14.046,14.046,0,0,0,1.713.47,17.88,17.88,0,0,1-6.159,9.093l-6.418-2.217a13.833,13.833,0,0,0-9.044,0l-6.51,2.249a17.891,17.891,0,0,1-6.193-9.1,13.481,13.481,0,0,0,1.838-.495l10.865-3.754a13.833,13.833,0,0,1,9.044,0Z" transform="translate(-146.866 -279.494)" fill="#86d7e5"/><path d="M155.273,323.107a17.766,17.766,0,0,1-.513-2.34l-5.342,1.846a13.476,13.476,0,0,1-1.838.495,17.89,17.89,0,0,0,6.193,9.1l5.586-1.93A17.84,17.84,0,0,1,155.273,323.107Z" transform="translate(-146.865 -293.386)" fill="#65cfdf"/></g><path d="M66.277,106.21v-11.8h4.237a.556.556,0,0,0,.424-.916l-6.956-8.192a.556.556,0,0,0-.848,0L56.179,93.5a.556.556,0,0,0,.424.916H60.84v11.8a.841.841,0,0,0,.841.841h3.755A.841.841,0,0,0,66.277,106.21Z" transform="translate(-56.046 -73.116)" fill="#ee878a"/><path d="M389.778,163.784v-7.711h4.237a.556.556,0,0,0,.424-.916l-6.956-8.192a.556.556,0,0,0-.848,0l-6.956,8.192a.556.556,0,0,0,.424.916h4.237v7.711a.9.9,0,0,0,.9.9h3.642A.9.9,0,0,0,389.778,163.784Z" transform="translate(-327.431 -124.841)" fill="#ee878a"/><path d="M244.86,26.443V19.185h3.883a.51.51,0,0,0,.389-.84l-6.376-7.509a.51.51,0,0,0-.777,0l-6.376,7.51a.51.51,0,0,0,.389.84h3.884v7.258a.956.956,0,0,0,.956.956H243.9A.956.956,0,0,0,244.86,26.443Z" transform="translate(-206.574 -10.656)" fill="#ee878a"/></g></g><g transform="translate(0 3.156)"><path d="M183.863,439.107,173,435.353a15.122,15.122,0,0,0-9.833,0L152.3,439.107a1.208,1.208,0,0,0,.789,2.284l10.865-3.754a12.693,12.693,0,0,1,8.255,0l10.865,3.754a1.208,1.208,0,0,0,.789-2.284Z" transform="translate(-127.082 -365.036)"/><path d="M50.3,89.332h3.028V100.76a1.208,1.208,0,0,0,2.417,0V88.123a1.208,1.208,0,0,0-1.208-1.208H51.71l5.546-6.532L62.8,86.915H59.975a1.208,1.208,0,0,0-1.208,1.208V100.76a1.208,1.208,0,0,0,2.417,0V89.332h3.028a1.764,1.764,0,0,0,1.345-2.906L58.6,78.234a1.764,1.764,0,0,0-2.69,0l-6.956,8.192A1.764,1.764,0,0,0,50.3,89.332Z" transform="translate(-40.714 -65.616)"/><path d="M373.8,150.988h3.028v7.4a1.208,1.208,0,0,0,2.417,0v-8.609a1.208,1.208,0,0,0-1.208-1.208H375.21l5.546-6.532,5.546,6.532h-2.827a1.208,1.208,0,0,0-1.208,1.208v8.609a1.208,1.208,0,0,0,2.417,0v-7.4h3.028a1.764,1.764,0,0,0,1.345-2.906l-6.956-8.192a1.764,1.764,0,0,0-2.69,0l-6.955,8.192a1.764,1.764,0,0,0,1.345,2.906Z" transform="translate(-312.098 -117.339)"/><path d="M229.688,14.1h2.675v7.006a1.208,1.208,0,0,0,2.417,0V12.893a1.208,1.208,0,0,0-1.208-1.208H231.2l4.866-5.732.346.408A1.208,1.208,0,0,0,238.253,4.8l-.879-1.036a1.715,1.715,0,0,0-1.31-.606h0a1.714,1.714,0,0,0-1.309.606l-6.376,7.509a1.718,1.718,0,0,0,1.31,2.83Z" transform="translate(-191.242 -3.156)"/><path d="M286.2,39.661v8.214a1.208,1.208,0,0,0,2.417,0V40.869h2.675a1.718,1.718,0,0,0,1.31-2.83l-2.164-2.549a1.208,1.208,0,1,0-1.842,1.564l1.187,1.4h-2.374A1.208,1.208,0,0,0,286.2,39.661Z" transform="translate(-240.092 -29.924)"/><path d="M81.3,171.838l-1.034-.475a15.137,15.137,0,0,0-13.391.4,12.674,12.674,0,0,1-7.279,1.42,19.072,19.072,0,0,0,.422-4.074c-.015-3.635-2.186-8.3-6.451-13.862a99.367,99.367,0,0,0-9.838-10.817,4.152,4.152,0,0,0-5.79.024c-1.67,1.626-4.195,4.189-6.74,7.167a1.208,1.208,0,1,0,1.837,1.57c2.486-2.908,4.955-5.415,6.589-7.005a1.745,1.745,0,0,1,2.433-.01c3.638,3.483,15.512,15.433,15.543,22.944a16.663,16.663,0,0,1-.374,3.585c-.148-.045-.3-.089-.441-.14l-10.865-3.754a15.122,15.122,0,0,0-9.833,0l-10.865,3.754c-.188.065-.378.124-.569.18a16.812,16.812,0,0,1-.379-3.486c-.012-2.976,1.916-7.156,5.576-12.088a1.208,1.208,0,0,0-1.94-1.44c-4.031,5.431-6.067,9.986-6.052,13.538a19.265,19.265,0,0,0,.42,3.927,12.672,12.672,0,0,1-7.145-1.433,15.138,15.138,0,0,0-13.391-.4L.7,171.838a1.208,1.208,0,0,0,1.009,2.2l1.034-.475a12.707,12.707,0,0,1,11.241.339,15.105,15.105,0,0,0,8.95,1.664,19.007,19.007,0,0,0,4.56,7.18l.106.1-2.386.825a12.676,12.676,0,0,1-10.09-.8A1.208,1.208,0,0,0,13.988,185a15.1,15.1,0,0,0,12.019.955l3.746-1.294a18.932,18.932,0,0,0,11.178,3.615h.083a18.975,18.975,0,0,0,11.13-3.65l3.848,1.33A15.1,15.1,0,0,0,68.011,185a1.208,1.208,0,0,0-1.14-2.131,12.676,12.676,0,0,1-10.09.8l-2.494-.862a19.128,19.128,0,0,0,4.638-7.263,15.1,15.1,0,0,0,9.085-1.646,12.707,12.707,0,0,1,11.241-.339l1.034.475a1.208,1.208,0,0,0,1.01-2.2ZM41,185.857h-.072a16.562,16.562,0,0,1-8.283-2.2l4.224-1.459a12.694,12.694,0,0,1,8.255,0l4.129,1.427A16.561,16.561,0,0,1,41,185.857Zm10.686-3.947-5.774-1.995a15.122,15.122,0,0,0-9.833,0l-5.877,2.031q-.518-.437-1.006-.919a16.612,16.612,0,0,1-3.869-5.959c.227-.066.452-.137.676-.214L36.872,171.1a12.694,12.694,0,0,1,8.255,0l10.865,3.754c.182.063.365.121.549.177A16.734,16.734,0,0,1,51.69,181.909Z" transform="translate(0 -120.698)"/></g></g></g></svg>