<svg xmlns="http://www.w3.org/2000/svg" width="120" height="120" viewBox="0 0 120 120"><g transform="translate(-478.828 -4231.3)"><circle cx="60" cy="60" r="60" transform="translate(478.828 4231.3)" fill="#80cab6"/><g transform="translate(479.828 4239.293)"><ellipse cx="5" cy="4.5" rx="5" ry="4.5" transform="translate(58.917 39.34)" fill="#f0c6a4"/><circle cx="4.5" cy="4.5" r="4.5" transform="translate(27.917 39.34)" fill="#f0c6a4"/><rect width="31" height="36" rx="15.5" transform="translate(32.917 22.34)" fill="#f7cca9"/><path d="M36.822,296H72.986a4.822,4.822,0,0,1,4.822,4.822v24.109H32V300.822A4.822,4.822,0,0,1,36.822,296Z" transform="translate(-6.795 -237.803)" fill="#e9eef2"/><path d="M105.741,40.877a16.822,16.822,0,0,1-.39,3.616H72.378a16.877,16.877,0,1,1,33.363-3.616Z" transform="translate(-40.755 -6.79)" fill="#eba72e"/><path d="M138.082,40.859H121.2a26.248,26.248,0,0,1-.365-14.4,16.859,16.859,0,0,1,17.606,0A26.248,26.248,0,0,1,138.082,40.859Z" transform="translate(-81.534 -6.772)" fill="#e09f2c"/><rect width="46" height="5" rx="2.5" transform="translate(24.917 34.34)" fill="#f7b030"/><path d="M167.233,24.389v8.05a3.616,3.616,0,1,1-7.233,0v-8.05A17.015,17.015,0,0,1,167.233,24.389Z" transform="translate(-115.507 -6.789)" fill="#d6982a"/><path d="M271.342,365.7H240l4.822-21.7,15.671,2.411L276.164,344Z" transform="translate(-183.452 -278.571)" fill="#d0d2d4"/><path d="M424,408h7.233v12.055H424Z" transform="translate(-339.727 -332.927)" fill="#7e8589"/><path d="M424,408h7.233v4.822H424Z" transform="translate(-339.727 -332.927)" fill="#6a7073"/><path d="M80,324.931V296h8.438v9.644l7.233,14.466v4.822Z" transform="translate(-47.562 -237.803)" fill="#f7b030"/><path d="M199.671,324.931V296h-8.438v9.644L184,320.109v4.822Z" transform="translate(-135.891 -237.803)" fill="#f7b030"/><path d="M184,456h15.671v4.822H184Z" transform="translate(-135.891 -373.694)" fill="#eb423f"/><path d="M80,456H95.671v4.822H80Z" transform="translate(-47.562 -373.694)" fill="#eb423f"/><path d="M260.493,346.411,255.671,365.7H240l4.822-21.7Z" transform="translate(-183.452 -278.571)" fill="#e1e3e6"/><path d="M144.877,296l-8.438,6.027L128,296Z" transform="translate(-88.329 -237.803)" fill="#f7cca9"/><path d="M184,302.027l8.438,3.616V296Z" transform="translate(-135.891 -237.803)" fill="#d0d2d4"/><path d="M136.438,302.027,128,305.644V296Z" transform="translate(-88.329 -237.803)" fill="#d0d2d4"/><ellipse cx="1" cy="1.5" rx="1" ry="1.5" transform="translate(52.917 42.34)"/><ellipse cx="1" cy="1.5" rx="1" ry="1.5" transform="translate(40.917 42.34)"/><path d="M169.205,196.822h2.411a1.205,1.205,0,1,0,0-2.411h-1.205v-1.205a1.205,1.205,0,1,0-2.411,0v2.411A1.205,1.205,0,0,0,169.205,196.822Z" transform="translate(-122.302 -149.474)"/><path d="M149.713,224.069a1.205,1.205,0,0,0-1.576.649,5.638,5.638,0,0,1-9.832-.007,1.205,1.205,0,1,0-2.222.934,8.028,8.028,0,0,0,14.28,0A1.205,1.205,0,0,0,149.713,224.069Z" transform="translate(-95.113 -176.629)"/><path d="M24,63.019V87.128a1.205,1.205,0,0,0,1.205,1.205h66.3a1.205,1.205,0,0,0,1.205-1.205V75.073A1.2,1.2,0,0,0,92.043,74l1.845-8.3a1.205,1.205,0,0,0-1.36-1.453L77.041,66.621l-4.822-.742v-2.86a6.034,6.034,0,0,0-6.027-6.027h-9.4a16.993,16.993,0,0,0,6.562-7.233h.425A6.024,6.024,0,0,0,68.6,40.115h0a3.616,3.616,0,0,0,0-7.233H66.15a18.081,18.081,0,0,0-36.082,0H27.616a3.616,3.616,0,1,0,0,7.233h0a6.024,6.024,0,0,0,4.818,9.644h.425a16.992,16.992,0,0,0,6.562,7.233h-9.4A6.034,6.034,0,0,0,24,63.019Zm2.411,0A3.621,3.621,0,0,1,30.027,59.4h1.205v26.52H26.411ZM52.786,59.4l-4.677,3.341L43.433,59.4Zm8.767,4.836a1.205,1.205,0,0,0-1.36.93L56.652,81.1H50.06l6.066-12.132a1.2,1.2,0,0,0,1.627-1.128V59.4h4.822V64.4ZM49.315,85.922V83.511h6.8l-.536,2.411ZM33.644,83.511H46.9v2.411H33.644Zm7.233-17.5V60.539l4.789,3.421Zm6.027.04V77.2l-4.59-9.18Zm8.438-.04L50.553,63.96l4.789-3.421ZM53.9,68.019l-4.59,9.18V66.052Zm-14.9.827a1.2,1.2,0,0,0,1.085.121L46.159,81.1H33.644V59.4h4.822V67.84a1.205,1.205,0,0,0,.542,1.006ZM62.3,66.793l13.249,2.038L71.278,85.922H58.05Zm28,19.13H85.479V81.1H90.3Zm0-7.233H85.479V76.279H90.3Zm-.7-4.822H86.684V70.251a1.205,1.205,0,0,0-2.411,0v3.616a1.205,1.205,0,0,0-1.205,1.205V85.922H73.763L78.016,68.91l13.137-2.021ZM69.808,63.019v2.489l-4.822-.742V59.4h1.205a3.621,3.621,0,0,1,3.616,3.616ZM64.294,47.31a16.824,16.824,0,0,0,.692-4.785v-2.2a3.616,3.616,0,0,1-.692,6.988Zm-.559-14.429h-5.56a23.8,23.8,0,0,0,.383-10.464,15.643,15.643,0,0,1,5.177,10.464Zm-23.184,0a21.3,21.3,0,0,1,.163-12.608,15.592,15.592,0,0,1,2.573-1.1v6.473a4.822,4.822,0,1,0,9.644,0V19.176a15.581,15.581,0,0,1,2.575,1.1,21.137,21.137,0,0,1,.162,12.607ZM50.52,18.6v7.047a2.411,2.411,0,0,1-4.822,0V18.6A15.761,15.761,0,0,1,50.52,18.6ZM37.662,22.418a23.8,23.8,0,0,0,.383,10.464h-5.56A15.643,15.643,0,0,1,37.662,22.418ZM26.411,36.5a1.207,1.207,0,0,1,1.205-1.205H68.6a1.205,1.205,0,0,1,0,2.411H27.616A1.207,1.207,0,0,1,26.411,36.5Zm2.411,7.233a3.622,3.622,0,0,1,2.411-3.409v2.2a16.824,16.824,0,0,0,.692,4.785A3.622,3.622,0,0,1,28.822,43.731Zm4.822-1.205V40.115H62.575v2.411a14.466,14.466,0,1,1-28.931,0Z"/></g></g></svg>