<svg xmlns="http://www.w3.org/2000/svg" width="125" height="125" viewBox="0 0 125 125"><g transform="translate(912 9838)"><circle cx="62.5" cy="62.5" r="62.5" transform="translate(-912 -9838)" fill="#80cab6"/><g transform="translate(-928.111 -9805)"><g transform="translate(56.286 1.175)"><g transform="translate(0)"><path d="M106.185,43.617A20.674,20.674,0,1,1,69.142,34.7v0L85.784,10,96.447,25.829" transform="translate(-65.111 -10)" fill="#a3e0fb"/></g><g transform="translate(26.192 9.731)"><path d="M288.068,109.377a9.209,9.209,0,0,1,1.8-5.49h0l7.447-11.055,7.447,11.055h0a9.252,9.252,0,1,1-16.7,5.49Z" transform="translate(-288.068 -92.831)" fill="#4696e6"/></g></g><g transform="translate(55.111 0)"><path d="M108.915,265.263a13.773,13.773,0,0,1-6.99-21.318,1.2,1.2,0,0,0,.106-.174,1.175,1.175,0,0,0-2.009-1.2,16.121,16.121,0,0,0,.072,19.192,16.252,16.252,0,0,0,8.123,5.749,1.175,1.175,0,0,0,.7-2.244Z" transform="translate(-91.983 -213.634)"/><path d="M102.156,27.452a10.344,10.344,0,0,0-2.016-6.163L92.7,10.249a1.175,1.175,0,0,0-1.949,0L87.621,14.9,77.933.518a1.175,1.175,0,0,0-1.948,0L59.352,25.208A21.848,21.848,0,1,0,98.806,38.146a22.052,22.052,0,0,0-.189-2.873A10.4,10.4,0,0,0,102.156,27.452ZM91.729,13.008,98.191,22.6q.019.03.041.059a8.077,8.077,0,1,1-13,0c.014-.018.027-.037.039-.057l3.327-4.939.018-.027Zm4.727,25.138A19.5,19.5,0,1,1,61.262,26.576c.014-.019.028-.039.041-.06L76.958,3.277,86.205,17l-2.887,4.285A10.425,10.425,0,0,0,96.407,36.768q.048.687.049,1.378Z" transform="translate(-55.111 0)"/><path d="M313.911,206.563a3.993,3.993,0,0,1,.345-1.633,1.175,1.175,0,1,0-2.147-.954,6.38,6.38,0,0,0,2.286,7.888,1.175,1.175,0,0,0,1.307-1.953A4.022,4.022,0,0,1,313.911,206.563Z" transform="translate(-281.434 -179.398)"/><path d="M219.391,447.933a1.174,1.174,0,1,0-1.315,1.6A1.184,1.184,0,0,0,219.391,447.933Z" transform="translate(-198.1 -394.677)"/><path d="M357.679,269.312a1.175,1.175,0,1,0,0-1.954A1.18,1.18,0,0,0,357.679,269.312Z" transform="translate(-321.679 -235.775)"/></g></g></g></svg>