<svg xmlns="http://www.w3.org/2000/svg" width="125" height="125" viewBox="0 0 125 125"><g transform="translate(-741 -1862)"><circle cx="62.5" cy="62.5" r="62.5" transform="translate(741 1862)" fill="#80cab6"/><g transform="translate(771.187 1880.903)"><path d="M57.324,107.426l-.007.008a3.823,3.823,0,0,1-5.405,0c-.014-.014.677-.685-30.409,30.4a7.927,7.927,0,0,1-11.21-11.21l30.4-30.4A3.827,3.827,0,0,1,46.106,90.8l11.219,11.219a3.823,3.823,0,0,1,0,5.405Z" transform="translate(-6.886 -66.709)" fill="#cbe3fa"/><path d="M53.9,105.829c-1.618-1.623-4.374-4.389-9.168-9.17a3.825,3.825,0,0,1-.643-4.553,1.4,1.4,0,0,0-1.519-2.035,3.832,3.832,0,0,0-1.933,6.452c.014.014.685-.677-30.4,30.409a7.939,7.939,0,0,0,5.251,13.52A7.923,7.923,0,0,1,14.334,128.3L42.6,100.029a1.092,1.092,0,0,1,1.544,0s7.8,7.8,7.851,7.844a1.4,1.4,0,0,0,1.907-2.044Z" transform="translate(-6.832 -67.017)" fill="#eef7ff"/><g transform="translate(1.089 13.522)"><path d="M391.976,249.635a5.936,5.936,0,0,1-.322,8.046l-.363.362a6.08,6.08,0,0,1-8.807-8.363,19.289,19.289,0,0,0,2.992-4.592,1.935,1.935,0,0,1,3.485-.038A22.207,22.207,0,0,0,391.976,249.635Z" transform="translate(-330.059 -213.462)" fill="#befa91"/><path d="M46.9,237.849l-25.4,25.4a7.927,7.927,0,0,1-11.21-11.21L26.57,235.755c7.024,3.328,11.183-2.282,16.6-.465A8.746,8.746,0,0,1,46.9,237.849Z" transform="translate(-7.973 -205.641)" fill="#befa91"/><circle cx="3.754" cy="3.754" r="3.754" transform="translate(55.144 0)" fill="#befa91"/></g><path d="M14.422,258.694a7.853,7.853,0,0,0-2.291,4.934,2.049,2.049,0,0,1-4.075.039,7.718,7.718,0,0,1,2.271-6.338L26.605,241.05a11.037,11.037,0,0,0,2.759.895.817.817,0,0,1,.423,1.383Z" transform="translate(-6.919 -197.414)" fill="#daffbf"/><path d="M416.65,22.623a3.861,3.861,0,0,0-2.487,2.483,1.092,1.092,0,0,1-2.1-.056,3.762,3.762,0,0,1,4.536-4.531A1.092,1.092,0,0,1,416.65,22.623Z" transform="translate(-355.722 -6.892)" fill="#daffbf"/><path d="M391.3,245.416a1.359,1.359,0,0,1-.38,1.694,1.906,1.906,0,0,0-.559.71,23.183,23.183,0,0,1-3.455,5.189,1.866,1.866,0,0,1-3.253-1.806c.784-1.733,2.275-2.45,3.978-6.113a1.935,1.935,0,0,1,3.485-.038Q391.2,245.234,391.3,245.416Z" transform="translate(-331.123 -199.941)" fill="#daffbf"/><path d="M19.158,52.354c1.011,1.012-.565,2.648-1.607,1.6C16.54,52.946,18.117,51.311,19.158,52.354Zm-4.807,3.262L9.886,60.08a1.092,1.092,0,1,0,1.544,1.544l4.465-4.465a1.092,1.092,0,1,0-1.544-1.544Zm36.86-21.075L39.992,23.322a4.922,4.922,0,0,0-6.209-.609A1.092,1.092,0,1,0,35,24.526a2.733,2.733,0,0,1,3.448.34L49.667,36.085A2.735,2.735,0,0,1,45.8,39.953L34.579,28.734a1.092,1.092,0,0,0-1.544,0c-.062.062,1.61-1.6-30.4,30.408A9.02,9.02,0,0,0,15.391,71.9c.288-.288,25.341-25.34,25.413-25.414,1.418-1.479-2.717-3.861-4.173-4.349-3.963-1.329-7.093.762-10.61,1.332a1.092,1.092,0,0,0,.349,2.156c4.341-.7,8.031-3.568,12.1.1L13.847,70.353a6.836,6.836,0,0,1-9.667-9.667L33.811,31.054,44.254,41.5a4.919,4.919,0,0,0,6.957-6.957ZM63.838,48.987A1.092,1.092,0,1,0,62.175,50.4a4.869,4.869,0,0,1-.263,6.566l-.362.362a4.844,4.844,0,0,1-6.853,0,4.905,4.905,0,0,1-.362-6.871c3.309-3.77,2.759-5.32,3.913-5.333a1.092,1.092,0,0,0,1.08-1.1c-.019-1.679-2.879-1.344-3.812.666a18.162,18.162,0,0,1-2.822,4.331,7.172,7.172,0,0,0,10.4,9.856l.362-.362a7.065,7.065,0,0,0,.382-9.527Zm-9.379-21A1.911,1.911,0,1,1,56.37,29.9,1.913,1.913,0,0,1,54.459,27.991Zm5.528-5.869a1.092,1.092,0,1,0,0-2.184,2.662,2.662,0,1,1,2.662-2.662,1.092,1.092,0,1,0,2.184,0,4.846,4.846,0,1,0-4.846,4.846Z"/></g></g></svg>