<svg xmlns="http://www.w3.org/2000/svg" width="125" height="125" viewBox="0 0 125 125"><g transform="translate(1272 9838)"><circle cx="62.5" cy="62.5" r="62.5" transform="translate(-1272 -9838)" fill="#80cab6"/><g transform="translate(-1289 -9806)"><path d="M66,99.086a4.766,4.766,0,0,0,4.766,4.766h35.742a4.766,4.766,0,0,0,4.766-4.766V72.637A17.872,17.872,0,0,0,93.4,54.766H86.254A4.767,4.767,0,0,1,81.488,50H66Zm39.316-20.492h-1.191A17.872,17.872,0,0,1,86.254,60.723H93.4a11.914,11.914,0,0,1,11.914,11.914Z" transform="translate(-8.809 -44.043)" fill="#fff"/><path d="M66,10H81.488v4.766H66Z" transform="translate(-8.809 -8.809)" fill="#ffe6b4"/><path d="M86.254,54.766H66V50H81.488A4.766,4.766,0,0,0,86.254,54.766Z" transform="translate(-8.809 -44.043)" fill="#e2e9ee"/><path d="M111.273,209.17v26.449a4.766,4.766,0,0,1-4.766,4.766H70.766A4.766,4.766,0,0,1,66,235.619V205.108a6.019,6.019,0,0,1,2.264,1.083,4.938,4.938,0,0,0,6.434,0,4.938,4.938,0,0,1,6.434,0,4.938,4.938,0,0,0,6.434,0,5.421,5.421,0,0,1,.793-.517,17.866,17.866,0,0,0,15.767,9.453h1.191V209.17a11.879,11.879,0,0,0-.71-4.06,6.007,6.007,0,0,1,2.259,1.082,5.664,5.664,0,0,0,3.217,1.191,4.386,4.386,0,0,0,1.088-.142A17.791,17.791,0,0,1,111.273,209.17Z" transform="translate(-8.809 -180.576)" fill="#cbf4fb"/><g transform="translate(56)"><path d="M369.9,107.461a1.192,1.192,0,1,0-.326-1.652A1.187,1.187,0,0,0,369.9,107.461Z" transform="translate(-332.035 -92.737)"/><path d="M102.524,22.111A18.987,18.987,0,0,0,99.4,16.582a1.192,1.192,0,0,0-1.85,1.5,16.479,16.479,0,0,1,3.462,7.518,4.652,4.652,0,0,1-2.192-.905,7.169,7.169,0,0,0-2.123-1.146l-.024-.058a13.1,13.1,0,0,0-12.075-8H77.445a1.192,1.192,0,0,0-1.191,1.191,18.932,18.932,0,0,0,1.5,7.42c.083.2.171.391.26.584l-.012.01a3.748,3.748,0,0,1-4.92,0,6.129,6.129,0,0,0-7.948,0,3.749,3.749,0,0,1-4.92,0,7.134,7.134,0,0,0-1.831-1.04V11.914H84.594a16.733,16.733,0,0,1,4.761.689A1.2,1.2,0,0,0,90.4,12.42a1.19,1.19,0,0,0,.342-1.526,1.192,1.192,0,0,0-.709-.575,19.11,19.11,0,0,0-5.44-.788H77.445a3.578,3.578,0,0,1-3.37-2.383h.987a3.574,3.574,0,0,0,0-7.148H57.191A1.191,1.191,0,0,0,56,1.191V55.043A5.953,5.953,0,0,0,61.957,61H97.7a5.953,5.953,0,0,0,5.957-5.957V28.594A18.983,18.983,0,0,0,102.524,22.111Zm-17.931-4.24A10.723,10.723,0,0,1,95.316,28.594v4.766A16.681,16.681,0,0,1,78.678,17.871ZM58.383,9.531V7.148H71.607a5.918,5.918,0,0,0,1.072,2.383ZM76.254,3.574a1.193,1.193,0,0,1-1.191,1.191H73.871V2.383h1.191A1.193,1.193,0,0,1,76.254,3.574ZM58.383,2.383H71.488V4.766H58.383Zm42.891,52.66A3.588,3.588,0,0,1,97.7,58.617H61.957a3.588,3.588,0,0,1-3.574-3.574V26.316c.2.125.312.216.313.217a6.129,6.129,0,0,0,7.948,0,3.748,3.748,0,0,1,4.92,0A6.763,6.763,0,0,0,75.539,28a6.636,6.636,0,0,0,3.621-1.2c.114.182.23.363.35.54A19.111,19.111,0,0,0,87.9,34.243a18.932,18.932,0,0,0,7.42,1.5h1.191A1.192,1.192,0,0,0,97.7,34.551V28.594a13.248,13.248,0,0,0-.131-1.855A6.675,6.675,0,0,0,101.262,28c.007.2.011.4.011.6Z" transform="translate(-56)"/><path d="M245.169,341.523h-.008c-.609,0-1.253.007-1.78.008v-8.339a1.191,1.191,0,0,0-2.383,0v9.523a1.192,1.192,0,0,0,.967,1.17,6.735,6.735,0,0,0,1.122.03c.459,0,1.122,0,2.089-.009a1.191,1.191,0,0,0-.007-2.383Z" transform="translate(-218.958 -292.445)"/><path d="M145.7,340.464a1.191,1.191,0,0,0-1.678.15,2.55,2.55,0,0,1-2.079.918,3.574,3.574,0,0,1,0-7.149,3.53,3.53,0,0,1,1.988.609,1.191,1.191,0,0,0,1.337-1.973,5.952,5.952,0,1,0-3.325,10.895,4.927,4.927,0,0,0,3.907-1.773,1.191,1.191,0,0,0-.15-1.678Z" transform="translate(-126.469 -292.446)"/></g></g></g></svg>