<svg xmlns="http://www.w3.org/2000/svg" width="112" height="112" viewBox="0 0 112 112"><g transform="translate(-1164 -11034)"><circle cx="56" cy="56" r="56" transform="translate(1164 11034)" fill="#80cab6"/><g transform="translate(1182.001 11051)"><path d="M92.853,38.1V89.935H40V38.1L66.426,32Z" transform="translate(-27.935 -20.951)" fill="#0093b9"/><path d="M104,168h36.59v40.656H104Z" transform="translate(-83.804 -139.672)" fill="#e3e4e2"/><path d="M92.853,38.1v4.4L66.426,36.124,40,42.5V38.1L66.426,32Z" transform="translate(-27.935 -20.951)" fill="#0884a9"/><rect width="8.274" height="4.597" rx="2.298" transform="translate(42.934 23.629) rotate(180)" fill="#57c3c1"/><path d="M74.951,23.115,45.475,16,16,23.115V27.18l29.475-7.115L74.951,27.18Z" transform="translate(-6.985 -6.984)" fill="#e3e4e2"/><path d="M104,168h36.59v17.279H104Z" transform="translate(-83.804 -139.672)" fill="#c9c9c8"/><path d="M52.59,264.525V248.262H34.3V232H16v32.525Z" transform="translate(-6.985 -195.541)" fill="#f8bc1e"/><path d="M208,360h6.1v6.1H208Z" transform="translate(-174.591 -307.279)" fill="#f9da62"/><path d="M185.279,368h-1.525a1.525,1.525,0,0,0-1.525,1.525v2.58a8.093,8.093,0,0,1-8.092,8.092h-4.613A1.525,1.525,0,0,0,168,381.721v1.525h17.279Z" transform="translate(-139.673 -314.262)" fill="#f5a922"/><path d="M64,360h6.1v6.1H64Z" transform="translate(-48.886 -307.279)" fill="#f9da62"/><path d="M41.279,368H39.754a1.525,1.525,0,0,0-1.525,1.525v2.58a8.093,8.093,0,0,1-8.092,8.092H25.525A1.525,1.525,0,0,0,24,381.721v1.525H41.279Z" transform="translate(-13.968 -314.262)" fill="#f5a922"/><path d="M64,232h6.1v6.1H64Z" transform="translate(-48.886 -195.541)" fill="#f9da62"/><path d="M41.279,240H39.754a1.525,1.525,0,0,0-1.525,1.525v2.58a8.093,8.093,0,0,1-8.092,8.092H25.525A1.525,1.525,0,0,0,24,253.721v1.525H41.279Z" transform="translate(-13.968 -202.525)" fill="#f5a922"/><path d="M120,448h2.033v2.033H120Z" transform="translate(-97.771 -384.098)"/><path d="M45.607,240.262H28.328V225.016A1.016,1.016,0,0,0,27.312,224H9.016A1.016,1.016,0,0,0,8,225.016v32.525a1.016,1.016,0,0,0,1.016,1.016h36.59a1.016,1.016,0,0,0,1.016-1.016V241.279A1.016,1.016,0,0,0,45.607,240.262ZM34.426,242.3h4.066v4.066H34.426Zm-18.3-16.262H20.2V230.1H16.131Zm-6.1,0H14.1v5.082a1.016,1.016,0,0,0,1.016,1.016h6.1a1.016,1.016,0,0,0,1.016-1.016v-5.082H26.3v14.23H10.033Zm6.1,16.262H20.2v4.066H16.131Zm-6.1,0H14.1v5.082a1.016,1.016,0,0,0,1.016,1.016h6.1a1.016,1.016,0,0,0,1.016-1.016V242.3H26.3v14.23H10.033Zm34.557,14.23H28.328V242.3h4.066v5.082a1.016,1.016,0,0,0,1.016,1.016h6.1a1.016,1.016,0,0,0,1.016-1.016V242.3H44.59Z" transform="translate(-0.001 -188.558)"/><path d="M264,448h2.033v2.033H264Z" transform="translate(-223.476 -384.098)"/><path d="M120,320h2.033v2.033H120Z" transform="translate(-97.771 -272.361)"/><path d="M67.728,21.184a1.009,1.009,0,0,0,.238.028,1.019,1.019,0,0,0,.88-.506,1.047,1.047,0,0,0,.136-.534V16.131a1.016,1.016,0,0,0-.778-.988L38.729,8.028a1.012,1.012,0,0,0-.477,0L8.777,15.143A1.016,1.016,0,0,0,8,16.131v4.037a1.057,1.057,0,0,0,.175.6,1.018,1.018,0,0,0,1.08.417l1.795-.433V33.41h2.033V20.261l25.41-6.133L63.9,20.261V67.967H57.8V28.328a1.016,1.016,0,0,0-1.016-1.016H20.2a1.016,1.016,0,0,0-1.016,1.016v4.066A1.016,1.016,0,0,0,20.2,33.41H55.77v2.033H30.36v2.033H55.77v2.033H30.36v2.033H55.77v2.033H30.36v2.033H55.77V67.967H48.655V70H68.983V67.967H65.934V20.751ZM21.212,31.377V29.344H55.77v2.033ZM38.491,12.065a1.009,1.009,0,0,0-.238.028L10.032,18.906V16.931l28.459-6.87,28.459,6.87v1.974L38.729,12.094a1.009,1.009,0,0,0-.238-.028Z"/><path d="M215.115,94.1a3.049,3.049,0,1,0,0-6.1h-4.066a3.049,3.049,0,1,0,0,6.1Zm-5.082-3.049a1.018,1.018,0,0,1,1.016-1.016h4.066a1.016,1.016,0,0,1,0,2.033h-4.066A1.018,1.018,0,0,1,210.033,91.049Z" transform="translate(-174.591 -69.836)"/></g></g></svg>