<svg xmlns="http://www.w3.org/2000/svg" width="94.419" height="129.256" viewBox="0 0 94.419 129.256"><g transform="translate(-563.291 -18783)"><g transform="translate(586.176 18783)"><path d="M183.976,0a24.306,24.306,0,0,0-24.322,23.195,1.893,1.893,0,1,0,3.783.177A20.562,20.562,0,1,1,190.271,43.93a1.892,1.892,0,0,0-1.041.822l-5.254,8.684-5.254-8.685a1.893,1.893,0,0,0-1.041-.823,20.54,20.54,0,0,1-13.42-13.725,1.893,1.893,0,1,0-3.631,1.076A24.324,24.324,0,0,0,175.84,47.3l6.516,10.77a1.893,1.893,0,0,0,3.24,0l6.516-10.77A24.352,24.352,0,0,0,183.976,0Z" transform="translate(-159.653)" fill="#12263f"/></g><g transform="translate(597.002 18793.26)"><g transform="translate(0)"><path d="M226.593,43.574a10.031,10.031,0,0,0-15.4,12.72l-8.1,8.1a1.893,1.893,0,1,0,2.678,2.678l8.1-8.1a10.032,10.032,0,0,0,12.721-15.4Zm-2.678,11.51a6.242,6.242,0,1,1,0-8.832A6.252,6.252,0,0,1,223.915,55.084Z" transform="translate(-202.536 -40.641)" fill="#12263f"/></g></g><g transform="translate(581.518 18848.172)"><path d="M160.575,263.5l-16.92-5.262a1.893,1.893,0,1,0-1.124,3.616l16.92,5.262a1.893,1.893,0,1,0,1.124-3.616Z" transform="translate(-141.199 -258.152)" fill="#12263f"/></g><g transform="translate(581.518 18854.881)"><path d="M160.575,290.075l-16.92-5.262a1.893,1.893,0,1,0-1.124,3.616l16.92,5.262a1.893,1.893,0,1,0,1.124-3.616Z" transform="translate(-141.199 -284.727)" fill="#12263f"/></g><g transform="translate(581.518 18861.59)"><path d="M160.575,316.649l-16.92-5.262A1.893,1.893,0,1,0,142.53,315l16.92,5.262a1.893,1.893,0,1,0,1.124-3.616Z" transform="translate(-141.199 -311.301)" fill="#12263f"/></g><g transform="translate(563.291 18832.5)"><g transform="translate(0)"><path d="M439.506,213.31Z" transform="translate(-345.865 -208.882)" fill="#12263f"/><path d="M162.642,200.5a1.893,1.893,0,0,0-1.693-.274l-2.7.864v-3.124a1.894,1.894,0,0,0-2.47-1.8L116.21,208.822l-24.053-7.694A1.893,1.893,0,0,0,91,204.735l23.313,7.457v38.549l-36.358-11.63V200.563l5.586,1.787a1.893,1.893,0,0,0,1.154-3.607l-8.056-2.577a1.894,1.894,0,0,0-2.47,1.8v3.124l-2.7-.864a1.894,1.894,0,0,0-2.47,1.8v57.411a1.894,1.894,0,0,0,1.317,1.8l45.316,14.5a1.908,1.908,0,0,0,1.154,0l23.284-7.447a1.893,1.893,0,0,0-1.154-3.607L118.1,271.347v-5.433l41.529-13.285v5.433L146.375,262.3a1.893,1.893,0,1,0,1.154,3.607l14.574-4.663a1.894,1.894,0,0,0,1.317-1.8V202.033A1.894,1.894,0,0,0,162.642,200.5Zm-48.326,70.843L72.788,258.062v-5.433l41.529,13.285Zm0-9.409L72.788,248.652V204.626l1.384.443v35.425a1.894,1.894,0,0,0,1.317,1.8l38.829,12.42Zm3.787-36V212.193l36.358-11.63v38.549L118.1,250.741v-24.8Zm41.529-14.493v37.208L118.1,261.937v-7.22l38.829-12.42a1.894,1.894,0,0,0,1.317-1.8V205.069l1.384-.443Z" transform="translate(-69.001 -196.075)" fill="#12263f"/></g></g><g transform="translate(622.507 18846.496)"><path d="M316.632,251.876a1.893,1.893,0,0,0-1.693-.274l-10.063,3.219a1.894,1.894,0,0,0-1.317,1.8v10.659a1.894,1.894,0,0,0,2.47,1.8l10.063-3.219a1.894,1.894,0,0,0,1.317-1.8V253.406A1.892,1.892,0,0,0,316.632,251.876Zm-3.01,10.806-6.276,2.008v-6.684L313.623,256Z" transform="translate(-303.56 -251.512)" fill="#12263f"/></g></g></svg>