<svg xmlns="http://www.w3.org/2000/svg" width="105" height="105" viewBox="0 0 105 105"><g transform="translate(-810 -2665)"><rect width="105" height="105" transform="translate(810 2665)" fill="#80cab6"/><g transform="translate(828.284 2676.834)"><g transform="translate(0 8)"><path d="M65.524,29.444H22.636a1.191,1.191,0,1,0,0-2.383H21.444V24.679H26.21A3.51,3.51,0,0,0,29.784,21.1V11.574A3.51,3.51,0,0,0,26.21,8H9.531a3.51,3.51,0,0,0-3.574,3.574V21.1a3.51,3.51,0,0,0,3.574,3.574H14.3v2.383H13.1a1.191,1.191,0,1,0,0,2.383H1.191a1.191,1.191,0,0,0,0,2.383H3.574V35.4a2.326,2.326,0,0,0,.119.834.438.438,0,0,0-.119.357V71.142a1.126,1.126,0,0,0,1.191,1.191,1.126,1.126,0,0,0,1.191-1.191V40.167a5.622,5.622,0,0,0,3.574,1.191H40.506a6.42,6.42,0,0,0,3.574-1.191V71.142a1.191,1.191,0,1,0,2.383,0V67.568h14.3v3.574a1.191,1.191,0,1,0,2.383,0V31.827h2.383a1.191,1.191,0,1,0,0-2.383ZM9.531,22.3A1.126,1.126,0,0,1,8.339,21.1V11.574a1.126,1.126,0,0,1,1.191-1.191H26.21A1.126,1.126,0,0,1,27.4,11.574V21.1A1.126,1.126,0,0,1,26.21,22.3Zm9.531,2.383v2.383H16.679V24.679ZM44.08,35.4a3.51,3.51,0,0,1-3.574,3.574H9.531A3.51,3.51,0,0,1,5.957,35.4V31.827H44.08ZM60.759,65.185h-14.3V41.358h14.3Zm0-26.21h-14.3V31.827h14.3Z" transform="translate(0 -8)" fill="#fff"/></g><g transform="translate(21.444 34.21)"><path d="M149.957,184h-4.765a1.191,1.191,0,0,0,0,2.383h4.765a1.191,1.191,0,1,0,0-2.383Z" transform="translate(-144 -184)" fill="#fff"/></g><g transform="translate(51.228 34.21)"><path d="M347.574,184h-2.383a1.191,1.191,0,0,0,0,2.383h2.383a1.191,1.191,0,0,0,0-2.383Z" transform="translate(-344 -184)" fill="#fff"/></g><g transform="translate(48.845 48.506)"><path d="M329.191,280A1.126,1.126,0,0,0,328,281.191v3.574a1.191,1.191,0,0,0,2.383,0v-3.574A1.126,1.126,0,0,0,329.191,280Z" transform="translate(-328 -280)" fill="#fff"/></g></g></g></svg>