<svg xmlns="http://www.w3.org/2000/svg" width="105" height="105" viewBox="0 0 105 105"><g transform="translate(-495 -2389)"><rect width="105" height="105" transform="translate(495 2389)" fill="#80cab6"/><g transform="translate(514.333 2410.331)"><g transform="translate(0 0.002)"><g transform="translate(0 0)"><path d="M65.356,23.613,54.765,13.022a1.059,1.059,0,0,0-.559-.292l-11.65-2.118a1.059,1.059,0,0,0-1.232.852,1.048,1.048,0,0,0-.017.189,6.288,6.288,0,0,1-.09,1l-7.324-1.83v-.339A5.3,5.3,0,1,0,27.538,5.3h2.118a3.177,3.177,0,1,1,3.177,3.177,1.059,1.059,0,0,0-1.059,1.059v1.291l-7.324,1.831a6.288,6.288,0,0,1-.09-1,1.059,1.059,0,0,0-.38-.813,1.034,1.034,0,0,0-.868-.228L11.461,12.73a1.059,1.059,0,0,0-.559.292L.311,23.613a1.059,1.059,0,0,0,0,1.5l8.473,8.473a1.059,1.059,0,0,0,1.5,0l2.429-2.429v6.975H5.3a5.28,5.28,0,0,0-3.145,9.532,5.247,5.247,0,0,0,0,8.473A5.28,5.28,0,0,0,5.3,65.668H43.425a1.059,1.059,0,0,0,.749-.31l8.473-8.473a1.049,1.049,0,0,0,.3-.749h.01V31.155l2.429,2.429a1.059,1.059,0,0,0,1.5,0l8.473-8.473A1.059,1.059,0,0,0,65.356,23.613ZM32.834,12.743l7.7,1.926a8.641,8.641,0,0,1-7.7,4.265,8.641,8.641,0,0,1-7.7-4.265ZM2.119,43.427A3.177,3.177,0,0,1,5.3,40.249H28.6a3.177,3.177,0,0,1,0,6.355H5.3A3.177,3.177,0,0,1,2.119,43.427Zm0,8.473A3.177,3.177,0,0,1,5.3,48.722H28.6a3.177,3.177,0,1,1,0,6.355H5.3A3.177,3.177,0,0,1,2.119,51.9ZM28.6,63.55H5.3a3.177,3.177,0,1,1,0-6.355H28.6a3.177,3.177,0,1,1,0,6.355Zm15.887-1.5V57.2h4.857Zm11.65-30.715-6.665-6.665-1.5,1.5,2.867,2.867v26.04H43.425a1.059,1.059,0,0,0-1.059,1.059V63.55h-9.56a5.224,5.224,0,0,0-.943-7.327l-.116-.087a5.247,5.247,0,0,0,0-8.473,5.28,5.28,0,0,0-3.15-9.532H14.828V29.037L17.7,26.17l-1.5-1.5L9.533,31.338,2.557,24.362l9.608-9.608,10.168-1.848c.693,4.592,5.137,8.147,10.5,8.147s9.805-3.554,10.5-8.147L53.5,14.754l9.613,9.608Z" transform="translate(0 -0.002)" fill="#fff"/><rect width="26" height="2" transform="translate(3.667 42.666)" fill="#fff"/><rect width="25" height="2" transform="translate(3.667 50.666)" fill="#fff"/><rect width="25" height="3" transform="translate(3.667 58.666)" fill="#fff"/></g></g></g></g></svg>