<svg xmlns="http://www.w3.org/2000/svg" width="105" height="105" viewBox="0 0 105 105"><g transform="translate(-810 -2389)"><rect width="105" height="105" transform="translate(810 2389)" fill="#80cab6"/><g transform="translate(830.002 2409.975)"><path d="M62,23H58a1,1,0,0,0-1,1V34H50V24a1,1,0,0,0-1-1H40V15a.993.993,0,0,0-.178-.569h0l-9-13a1.038,1.038,0,0,0-1.644,0l-9,13h0A.993.993,0,0,0,20,15v8H12.016A11.016,11.016,0,0,0,8.207,44.353l9.749,3.591A3.124,3.124,0,0,1,16.876,54H2a1,1,0,0,0-1,1v7a1,1,0,0,0,1,1H17.4A11.588,11.588,0,0,0,26,43.632V35H44V62a1,1,0,0,0,1,1h4a1,1,0,0,0,1-1V60h7v2a1,1,0,0,0,1,1h4a1,1,0,0,0,1-1V24A1,1,0,0,0,62,23ZM30,3.757,37.091,14H22.909ZM20,39.987l-8.342-3.073A2.535,2.535,0,0,1,12.535,32H20ZM17.4,61H3V56H16.876a5.124,5.124,0,0,0,1.771-9.933L8.9,42.476A9.016,9.016,0,0,1,12.016,25H20v5H12.535a4.535,4.535,0,0,0-1.568,8.791l9.748,3.591A9.605,9.605,0,0,1,17.4,61ZM24,41.865a11.454,11.454,0,0,0-2-1.114V35h2ZM38,33H22V16H38Zm2,0V25h4v8Zm6,28V25h2V61ZM57,36v2H50V36ZM50,50V48h7v2Zm7,2v2H50V52Zm-7-6V44h7v2Zm0-4V40h7v2Zm0,16V56h7v2Zm9,3V25h2V61Z" fill="#fff"/><path d="M26,31h8a1,1,0,0,0,1-1V23a5,5,0,0,0-10,0v7A1,1,0,0,0,26,31Zm1-8a3,3,0,0,1,6,0v6H27Z" fill="#fff"/></g></g></svg>