<svg xmlns="http://www.w3.org/2000/svg" width="147" height="147" viewBox="0 0 147 147"><g transform="translate(-1199 -1237)"><circle cx="73.5" cy="73.5" r="73.5" transform="translate(1199 1237)" fill="#80cab6"/><g transform="translate(1236 1274)"><g transform="translate(1.445 54.055)"><path d="M10,374v6.358a11.423,11.423,0,0,1,10.21-.02,11.334,11.334,0,0,0,10.138,0,11.335,11.335,0,0,1,10.138,0,11.334,11.334,0,0,0,10.138,0,11.335,11.335,0,0,1,10.138,0,11.334,11.334,0,0,0,10.138,0,11.445,11.445,0,0,1,10.21.014V374Z" transform="translate(-10 -374)" fill="#fff3da"/><path d="M70.9,451.066a11.334,11.334,0,0,1-10.138,0,11.335,11.335,0,0,0-10.138,0,11.334,11.334,0,0,1-10.138,0,11.335,11.335,0,0,0-10.138,0,11.334,11.334,0,0,1-10.138,0,11.423,11.423,0,0,0-10.21.02V457.4H81.109V451.08a11.445,11.445,0,0,0-10.21-.014Z" transform="translate(-10 -438.904)" fill="#66e0f7"/><path d="M71.326,410.768a11.334,11.334,0,0,1-10.138,0,11.334,11.334,0,0,0-10.138,0,11.334,11.334,0,0,1-10.138,0,11.334,11.334,0,0,0-10.138,0,11.334,11.334,0,0,1-10.138,0,11.334,11.334,0,0,0-10.138,0v5.824a11.335,11.335,0,0,1,10.138,0,11.334,11.334,0,0,0,10.138,0,11.335,11.335,0,0,1,10.138,0,11.334,11.334,0,0,0,10.138,0,11.335,11.335,0,0,1,10.138,0,11.334,11.334,0,0,0,10.138,0,11.335,11.335,0,0,1,10.138,0v-5.824A11.334,11.334,0,0,0,71.326,410.768Z" transform="translate(-10.427 -404.431)" fill="#ccf5fc"/></g><g transform="translate(1.445 1.445)"><path d="M191.732,38.742A12.331,12.331,0,0,1,173.3,22.429L183.013,10l9.715,12.429A12.331,12.331,0,0,1,191.732,38.742Z" transform="translate(-147.458 -10)" fill="#66e0f7"/><path d="M400.766,29.452a8.345,8.345,0,0,1-12.476-11.04L394.865,10l6.575,8.411A8.345,8.345,0,0,1,400.766,29.452Z" transform="translate(-332.101 -10)" fill="#66e0f7"/><path d="M12.444,29.452A8.345,8.345,0,0,0,24.92,18.411L18.345,10,11.77,18.411a8.345,8.345,0,0,0,.674,11.04Z" transform="translate(-10 -10)" fill="#66e0f7"/></g><g transform="translate(0 0)"><path d="M174.487,35.245a13.778,13.778,0,0,0,13.662-15.558,1.445,1.445,0,0,0-2.867.372,10.886,10.886,0,1,1-19.372-5.295l8.577-10.972,4.571,5.848a1.445,1.445,0,0,0,2.278-1.78l-5.71-7.3a1.446,1.446,0,0,0-2.277,0l-9.715,12.429a13.777,13.777,0,0,0,10.854,22.261Z" transform="translate(-137.487 0)"/><path d="M386.332,24.782a9.786,9.786,0,0,0,7.714-15.815L387.471.555a1.446,1.446,0,0,0-2.278,0l-6.575,8.411a9.785,9.785,0,0,0,7.714,15.815ZM380.9,10.747l5.436-6.954,5.436,6.955a6.9,6.9,0,1,1-10.872,0Z" transform="translate(-322.122 0)"/><path d="M9.812,24.782A9.786,9.786,0,0,0,17.525,8.966L10.95.555a1.446,1.446,0,0,0-2.278,0L2.1,8.966A9.785,9.785,0,0,0,9.812,24.782ZM4.375,10.747,9.812,3.792l5.436,6.955a6.9,6.9,0,1,1-10.872,0Z" transform="translate(-0.021 0)"/><path d="M230.727,272.542a1.445,1.445,0,0,0-1.445,1.445v2.755l-.227-.3a1.445,1.445,0,0,0-2.3,1.746l2.824,3.725a1.446,1.446,0,0,0,2.3,0l2.824-3.725a1.445,1.445,0,0,0-2.3-1.746l-.227.3v-2.755A1.445,1.445,0,0,0,230.727,272.542Z" transform="translate(-193.727 -233.151)"/><path d="M42.467,202.152a1.445,1.445,0,0,0-1.445,1.445v12.928l-.227-.3a1.445,1.445,0,0,0-2.3,1.746l2.824,3.725a1.445,1.445,0,0,0,2.3,0l2.824-3.725a1.445,1.445,0,0,0-2.3-1.746l-.227.3V203.6A1.445,1.445,0,0,0,42.467,202.152Z" transform="translate(-32.677 -172.935)"/><path d="M142.81,259.806a1.445,1.445,0,0,0,2.3,0l2.824-3.725a1.445,1.445,0,0,0-2.3-1.746l-.227.3v-6.49a1.445,1.445,0,0,0-2.891,0v6.49l-.227-.3a1.445,1.445,0,1,0-2.3,1.746Z" transform="translate(-119.502 -211.043)"/><path d="M418.987,202.152a1.445,1.445,0,0,0-1.445,1.445v12.928l-.227-.3a1.445,1.445,0,0,0-2.3,1.746l2.824,3.725a1.445,1.445,0,0,0,2.3,0l2.824-3.725a1.445,1.445,0,0,0-2.3-1.746l-.227.3V203.6a1.445,1.445,0,0,0-1.445-1.445Z" transform="translate(-354.778 -172.935)"/><path d="M317.494,246.7a1.445,1.445,0,0,0-1.445,1.445v6.49l-.227-.3a1.445,1.445,0,0,0-2.3,1.746l2.824,3.725a1.445,1.445,0,0,0,2.3,0l2.824-3.725a1.445,1.445,0,1,0-2.3-1.746l-.227.3v-6.49A1.445,1.445,0,0,0,317.494,246.7Z" transform="translate(-267.953 -211.042)"/><path d="M72.555,364H1.445A1.445,1.445,0,0,0,0,365.445v18.5a1.445,1.445,0,0,0,1.445,1.445H72.555A1.445,1.445,0,0,0,74,383.945v-18.5A1.445,1.445,0,0,0,72.555,364ZM2.891,372.753a9.94,9.94,0,0,1,8.118.323,12.841,12.841,0,0,0,11.431,0,9.935,9.935,0,0,1,8.845,0,12.841,12.841,0,0,0,11.43,0,9.937,9.937,0,0,1,8.845,0,12.841,12.841,0,0,0,11.431,0,9.94,9.94,0,0,1,8.118-.323v2.762a12.851,12.851,0,0,0-9.411.8,9.936,9.936,0,0,1-8.845,0,12.841,12.841,0,0,0-11.431,0,9.937,9.937,0,0,1-8.845,0,12.84,12.84,0,0,0-11.43,0,9.936,9.936,0,0,1-8.845,0,12.851,12.851,0,0,0-9.411-.8v-2.762Zm68.219-5.863v2.8a12.851,12.851,0,0,0-9.411.8,9.936,9.936,0,0,1-8.845,0,12.841,12.841,0,0,0-11.431,0,9.937,9.937,0,0,1-8.845,0,12.84,12.84,0,0,0-11.43,0,9.936,9.936,0,0,1-8.845,0,12.851,12.851,0,0,0-9.411-.8v-2.8ZM2.891,382.5v-3.922a9.94,9.94,0,0,1,8.118.323,12.841,12.841,0,0,0,11.431,0,9.935,9.935,0,0,1,8.845,0,12.841,12.841,0,0,0,11.43,0,9.937,9.937,0,0,1,8.845,0,12.841,12.841,0,0,0,11.431,0,9.94,9.94,0,0,1,8.118-.323V382.5Z" transform="translate(0 -311.391)"/><circle cx="1.445" cy="1.445" r="1.445" transform="translate(45.271 12.427)"/></g></g></g></svg>