<svg xmlns="http://www.w3.org/2000/svg" width="105" height="105" viewBox="0 0 105 105"><g transform="translate(-180 -2527)"><rect width="105" height="105" transform="translate(180 2527)" fill="#80cab6"/><g transform="translate(196 2458.5)"><path d="M74,100.668V98.5H0v2.168H3.252v2.168H0V105H3.252v2.168H0v2.168H3.252v2.168H0v2.168H3.252v2.168H0v2.168H3.252v2.168H0v2.168H3.252v2.168H0v2.168H3.252v2.168H0v2.168H3.252v2.168H0v2.168H3.252v2.168H0v2.168H3.252v2.168H0v2.168H57.74v-2.168H5.42V100.668H68.58v41.191H64.244v2.168H74v-2.168H70.748v-2.168H74v-2.168H70.748v-2.168H74v-2.168H70.748v-2.168H74v-2.168H70.748v-2.168H74v-2.168H70.748v-2.168H74V120.18H70.748v-2.168H74v-2.168H70.748v-2.168H74v-2.168H70.748V109.34H74v-2.168H70.748V105H74v-2.168H70.748v-2.168Z" fill="#fff"/><path d="M414.5,398.5h2.168v2.168H414.5Z" transform="translate(-354.592 -256.641)" fill="#fff"/><path d="M111.324,162.1V131.752a3.256,3.256,0,0,0-3.252-3.252h-46.9v2.168h46.9a1.085,1.085,0,0,1,1.084,1.084V162.1a1.085,1.085,0,0,1-1.084,1.084H55.752a1.085,1.085,0,0,1-1.084-1.084V131.752a1.085,1.085,0,0,1,1.084-1.084H59V128.5H55.752a3.256,3.256,0,0,0-3.252,3.252V162.1a3.256,3.256,0,0,0,3.252,3.252h52.32A3.256,3.256,0,0,0,111.324,162.1Z" transform="translate(-44.912 -25.664)" fill="#fff"/><path d="M162.788,190.62a5.118,5.118,0,0,0,3.219,1.127q.2,0,.407-.016c2.443-.188,5.072-2.146,5.072-6V171.586a5.664,5.664,0,0,0-1.933-4.225,6.841,6.841,0,0,0-5.191-1.708,6.663,6.663,0,0,0-4.585,2.544,6.012,6.012,0,0,0-1.232,4.633l2.157,13.93A6,6,0,0,0,162.788,190.62Zm3.46-1.05c-1.33.1-3.019-.659-3.4-3.142l-1.158-7.477a7.968,7.968,0,0,1,7.632-1.046v7.826C169.318,188.22,167.776,189.453,166.247,189.57Zm-4.757-20.046a4.486,4.486,0,0,1,3.087-1.714,4.351,4.351,0,0,1,.436-.022,4.649,4.649,0,0,1,3.085,1.179,3.524,3.524,0,0,1,1.22,2.617v4.032a10.126,10.126,0,0,0-8,.957l-.631-4.077A3.865,3.865,0,0,1,161.491,169.525Z" transform="translate(-135.57 -57.421)" fill="#fff"/><path d="M268.979,191.747a5.118,5.118,0,0,0,3.219-1.127,6,6,0,0,0,2.086-3.86l2.157-13.93a6.012,6.012,0,0,0-1.232-4.633,6.664,6.664,0,0,0-4.585-2.544,6.845,6.845,0,0,0-5.191,1.708,5.665,5.665,0,0,0-1.933,4.225v14.146c0,3.854,2.629,5.812,5.072,6q.2.016.407.016Zm-2.092-22.779a4.649,4.649,0,0,1,3.085-1.18c.146,0,.291.007.436.022a4.487,4.487,0,0,1,3.087,1.714,3.865,3.865,0,0,1,.8,2.974l-.631,4.077a10.126,10.126,0,0,0-8-.957v-4.032A3.523,3.523,0,0,1,266.887,168.968Zm-1.219,16.763v-7.826a7.968,7.968,0,0,1,7.632,1.046l-1.158,7.477c-.384,2.483-2.075,3.243-3.4,3.142C267.21,189.452,265.668,188.219,265.668,185.731Z" transform="translate(-225.416 -57.42)" fill="#fff"/><path d="M414.5,158.5h2.168v2.168H414.5Z" transform="translate(-354.592 -51.327)" fill="#fff"/><path d="M414.5,188.5h2.168v2.168H414.5Z" transform="translate(-354.592 -76.992)" fill="#fff"/></g></g></svg>