<svg xmlns="http://www.w3.org/2000/svg" width="105" height="105" viewBox="0 0 105 105"><g transform="translate(-495 -2527)"><rect width="105" height="105" transform="translate(495 2527)" fill="#80cab6"/><g transform="translate(517 2548)"><path d="M62,57H2a1,1,0,0,0-1,1v4a1,1,0,0,0,1,1H62a1,1,0,0,0,1-1V58A1,1,0,0,0,62,57Zm-1,4H3V59H61Z" fill="#fff"/><path d="M53.912,1.59A1,1,0,0,0,53,1H11a1,1,0,0,0-.912.59l-9,20A1,1,0,0,0,1,22v4a1,1,0,0,0,1,1H62a1,1,0,0,0,1-1V22a1,1,0,0,0-.088-.41ZM11.646,3H52.354l8.1,18H3.547ZM3,25V23H61v2Z" fill="#fff"/><path d="M15,5h2V7H15Z" fill="#fff"/><path d="M31,5h2V7H31Z" fill="#fff"/><path d="M31,9h2v2H31Z" fill="#fff"/><path d="M31,13h2v2H31Z" fill="#fff"/><path d="M31,17h2v2H31Z" fill="#fff"/><path d="M23,5h2V7H23Z" fill="#fff"/><path d="M13,9h2v2H13Z" fill="#fff"/><path d="M22,9h2v2H22Z" fill="#fff"/><path d="M11,13h2v2H11Z" fill="#fff"/><path d="M21,13h2v2H21Z" fill="#fff"/><path d="M9,17h2v2H9Z" fill="#fff"/><path d="M20,17h2v2H20Z" fill="#fff"/><path d="M47,5h2V7H47Z" fill="#fff"/><path d="M39,5h2V7H39Z" fill="#fff"/><path d="M49,9h2v2H49Z" fill="#fff"/><path d="M40,9h2v2H40Z" fill="#fff"/><path d="M51,13h2v2H51Z" fill="#fff"/><path d="M41,13h2v2H41Z" fill="#fff"/><path d="M53,17h2v2H53Z" fill="#fff"/><path d="M42,17h2v2H42Z" fill="#fff"/><path d="M62,29H2a1,1,0,0,0-1,1V54a1,1,0,0,0,1,1H62a1,1,0,0,0,1-1V30A1,1,0,0,0,62,29ZM3,37.942a3.189,3.189,0,0,0,2.449-2.126A1.192,1.192,0,0,1,6.581,35h.838a1.192,1.192,0,0,1,1.132.816A3.192,3.192,0,0,0,11.581,38h.838a3.192,3.192,0,0,0,3.03-2.184A1.192,1.192,0,0,1,16.581,35h.838a1.192,1.192,0,0,1,1.132.816A3.192,3.192,0,0,0,21.581,38h.838a3.192,3.192,0,0,0,3.03-2.184A1.192,1.192,0,0,1,26.581,35h.838a1.192,1.192,0,0,1,1.132.816A3.192,3.192,0,0,0,31.581,38h.838a3.192,3.192,0,0,0,3.03-2.184A1.192,1.192,0,0,1,36.581,35h.838a1.192,1.192,0,0,1,1.132.816A3.192,3.192,0,0,0,41.581,38h.838a3.192,3.192,0,0,0,3.03-2.184A1.192,1.192,0,0,1,46.581,35h.838a1.192,1.192,0,0,1,1.132.816A3.192,3.192,0,0,0,51.581,38h.838a3.192,3.192,0,0,0,3.03-2.184A1.192,1.192,0,0,1,56.581,35h.838a1.192,1.192,0,0,1,1.132.816A3.189,3.189,0,0,0,61,37.942v3.892a1.181,1.181,0,0,1-.551-.65A3.192,3.192,0,0,0,57.419,39h-.838a3.192,3.192,0,0,0-3.03,2.184A1.192,1.192,0,0,1,52.419,42h-.838a1.192,1.192,0,0,1-1.132-.816A3.192,3.192,0,0,0,47.419,39h-.838a3.192,3.192,0,0,0-3.03,2.184A1.192,1.192,0,0,1,42.419,42h-.838a1.192,1.192,0,0,1-1.132-.816A3.192,3.192,0,0,0,37.419,39h-.838a3.192,3.192,0,0,0-3.03,2.184A1.192,1.192,0,0,1,32.419,42h-.838a1.192,1.192,0,0,1-1.132-.816A3.192,3.192,0,0,0,27.419,39h-.838a3.192,3.192,0,0,0-3.03,2.184A1.192,1.192,0,0,1,22.419,42h-.838a1.192,1.192,0,0,1-1.132-.816A3.192,3.192,0,0,0,17.419,39h-.838a3.192,3.192,0,0,0-3.03,2.184A1.192,1.192,0,0,1,12.419,42h-.838a1.192,1.192,0,0,1-1.132-.816A3.192,3.192,0,0,0,7.419,39H6.581a3.192,3.192,0,0,0-3.03,2.184,1.181,1.181,0,0,1-.551.65Zm0,6a3.189,3.189,0,0,0,2.449-2.126A1.192,1.192,0,0,1,6.581,41h.838a1.192,1.192,0,0,1,1.132.816A3.192,3.192,0,0,0,11.581,44h.838a3.192,3.192,0,0,0,3.03-2.184A1.192,1.192,0,0,1,16.581,41h.838a1.192,1.192,0,0,1,1.132.816A3.192,3.192,0,0,0,21.581,44h.838a3.192,3.192,0,0,0,3.03-2.184A1.192,1.192,0,0,1,26.581,41h.838a1.192,1.192,0,0,1,1.132.816A3.192,3.192,0,0,0,31.581,44h.838a3.192,3.192,0,0,0,3.03-2.184A1.192,1.192,0,0,1,36.581,41h.838a1.192,1.192,0,0,1,1.132.816A3.192,3.192,0,0,0,41.581,44h.838a3.192,3.192,0,0,0,3.03-2.184A1.192,1.192,0,0,1,46.581,41h.838a1.192,1.192,0,0,1,1.132.816A3.192,3.192,0,0,0,51.581,44h.838a3.192,3.192,0,0,0,3.03-2.184A1.192,1.192,0,0,1,56.581,41h.838a1.192,1.192,0,0,1,1.132.816A3.189,3.189,0,0,0,61,43.942v3.892a1.181,1.181,0,0,1-.551-.65A3.192,3.192,0,0,0,57.419,45h-.838a3.192,3.192,0,0,0-3.03,2.184A1.192,1.192,0,0,1,52.419,48h-.838a1.192,1.192,0,0,1-1.132-.816A3.192,3.192,0,0,0,47.419,45h-.838a3.192,3.192,0,0,0-3.03,2.184A1.192,1.192,0,0,1,42.419,48h-.838a1.192,1.192,0,0,1-1.132-.816A3.192,3.192,0,0,0,37.419,45h-.838a3.192,3.192,0,0,0-3.03,2.184A1.192,1.192,0,0,1,32.419,48h-.838a1.192,1.192,0,0,1-1.132-.816A3.192,3.192,0,0,0,27.419,45h-.838a3.192,3.192,0,0,0-3.03,2.184A1.192,1.192,0,0,1,22.419,48h-.838a1.192,1.192,0,0,1-1.132-.816A3.192,3.192,0,0,0,17.419,45h-.838a3.192,3.192,0,0,0-3.03,2.184A1.192,1.192,0,0,1,12.419,48h-.838a1.192,1.192,0,0,1-1.132-.816A3.192,3.192,0,0,0,7.419,45H6.581a3.192,3.192,0,0,0-3.03,2.184,1.181,1.181,0,0,1-.551.65ZM61,31v4.834a1.181,1.181,0,0,1-.551-.65A3.192,3.192,0,0,0,57.419,33h-.838a3.192,3.192,0,0,0-3.03,2.184A1.192,1.192,0,0,1,52.419,36h-.838a1.192,1.192,0,0,1-1.132-.816A3.192,3.192,0,0,0,47.419,33h-.838a3.192,3.192,0,0,0-3.03,2.184A1.192,1.192,0,0,1,42.419,36h-.838a1.192,1.192,0,0,1-1.132-.816A3.192,3.192,0,0,0,37.419,33h-.838a3.192,3.192,0,0,0-3.03,2.184A1.192,1.192,0,0,1,32.419,36h-.838a1.192,1.192,0,0,1-1.132-.816A3.192,3.192,0,0,0,27.419,33h-.838a3.192,3.192,0,0,0-3.03,2.184A1.192,1.192,0,0,1,22.419,36h-.838a1.192,1.192,0,0,1-1.132-.816A3.192,3.192,0,0,0,17.419,33h-.838a3.192,3.192,0,0,0-3.03,2.184A1.192,1.192,0,0,1,12.419,36h-.838a1.192,1.192,0,0,1-1.132-.816A3.192,3.192,0,0,0,7.419,33H6.581a3.192,3.192,0,0,0-3.03,2.184,1.181,1.181,0,0,1-.551.65V31ZM3,53V49.942a3.189,3.189,0,0,0,2.449-2.126A1.192,1.192,0,0,1,6.581,47h.838a1.192,1.192,0,0,1,1.132.816A3.192,3.192,0,0,0,11.581,50h.838a3.192,3.192,0,0,0,3.03-2.184A1.192,1.192,0,0,1,16.581,47h.838a1.192,1.192,0,0,1,1.132.816A3.192,3.192,0,0,0,21.581,50h.838a3.192,3.192,0,0,0,3.03-2.184A1.192,1.192,0,0,1,26.581,47h.838a1.192,1.192,0,0,1,1.132.816A3.192,3.192,0,0,0,31.581,50h.838a3.192,3.192,0,0,0,3.03-2.184A1.192,1.192,0,0,1,36.581,47h.838a1.192,1.192,0,0,1,1.132.816A3.192,3.192,0,0,0,41.581,50h.838a3.192,3.192,0,0,0,3.03-2.184A1.192,1.192,0,0,1,46.581,47h.838a1.192,1.192,0,0,1,1.132.816A3.192,3.192,0,0,0,51.581,50h.838a3.192,3.192,0,0,0,3.03-2.184A1.192,1.192,0,0,1,56.581,47h.838a1.192,1.192,0,0,1,1.132.816A3.189,3.189,0,0,0,61,49.942V53Z" fill="#fff"/></g></g></svg>