<svg xmlns="http://www.w3.org/2000/svg" width="105" height="105" viewBox="0 0 105 105"><g transform="translate(-495 -2665)"><rect width="105" height="105" transform="translate(495 2665)" fill="#80cab6"/><g transform="translate(511.999 2683)"><path d="M14.521,301.871h-9.8a3.386,3.386,0,0,0-3.382,3.382v20.175a3.386,3.386,0,0,0,3.382,3.382h9.8a3.386,3.386,0,0,0,3.382-3.382V305.253A3.386,3.386,0,0,0,14.521,301.871Zm-9.8,2.194h9.8a1.189,1.189,0,0,1,1.188,1.188v16.435H3.53V305.253a1.189,1.189,0,0,1,1.188-1.188Zm9.8,22.551h-9.8a1.189,1.189,0,0,1-1.188-1.188v-1.546H15.709v1.546a1.189,1.189,0,0,1-1.188,1.188Zm0,0" transform="translate(-1.15 -260.01)" fill="#fff"/><path d="M40.923,258.632H4.719a3.386,3.386,0,0,0-3.382,3.382,1.1,1.1,0,1,0,2.194,0,1.189,1.189,0,0,1,1.188-1.188H36.862v28.547H20.454a1.1,1.1,0,0,0,0,2.194h20.47a3.386,3.386,0,0,0,3.382-3.382V262.014a3.386,3.386,0,0,0-3.382-3.382Zm1.188,29.553a1.189,1.189,0,0,1-1.188,1.188H39.057V260.827h1.867a1.189,1.189,0,0,1,1.188,1.188Zm0,0" transform="translate(-1.15 -222.767)" fill="#fff"/><path d="M68.184,148.44a7.336,7.336,0,1,0-7.336-7.336A7.344,7.344,0,0,0,68.184,148.44Zm0-12.476a5.141,5.141,0,1,1-5.142,5.141A5.147,5.147,0,0,1,68.184,135.964Zm0,0" transform="translate(-52.409 -115.219)" fill="#fff"/><path d="M94.738,28.875a1.1,1.1,0,0,0-1.707,1.378L96.5,34.546a1.1,1.1,0,0,0,.774.405l5.169.375,11.021,1.268.032,0,.055,0,10.609.537h.055c.035,0,.07,0,.105,0l4.475-.431a1.1,1.1,0,0,0,.561-.22l1.3-.991a1.1,1.1,0,1,0-1.331-1.744l-1.049.8-4.084.393-9.661-.489-.954-5.622a1.1,1.1,0,0,0-2.163.367l.856,5.05-8.679-1-.246-4.463a1.1,1.1,0,0,0-2.191.121l.229,4.142L97.9,32.8Zm0,0" transform="translate(-79.919 -23.901)" fill="#fff"/><path d="M412.707,97.527a1.1,1.1,0,0,0-1.219-.959l-1.6.192c-.028,0-.055.008-.082.013a1.809,1.809,0,0,0-.534,3.353l4.523,2.641.027.015c.177.1.59.323,3.738.61.034,0,.068,0,.1,0a1.1,1.1,0,0,0,.1-2.189,29.271,29.271,0,0,1-2.934-.38L411.341,98.8l.407-.049a1.1,1.1,0,0,0,.959-1.22Zm0,0" transform="translate(-351.715 -83.17)" fill="#fff"/><path d="M32.012,63.078a1.1,1.1,0,0,0,1.525.289l4.27-2.91a1.1,1.1,0,0,0,.347-1.429L37.054,57a1.1,1.1,0,0,0-1.929,1.045l.627,1.158L32.3,61.553a1.1,1.1,0,0,0-.289,1.525Zm0,0" transform="translate(-27.408 -48.599)" fill="#fff"/><path d="M68.524,26.464a8.435,8.435,0,0,0,.781-.823,5.689,5.689,0,0,0,1.36-4.8c0-.021-.009-.042-.014-.063L69.5,16.325a4.819,4.819,0,0,0-2.645-3.173c-2.924-1.359-20.229-8.907-20.965-9.228L45.835,3.9l-.193-.073C37.417.736,35.463,0,26.015,0,19.345,0,9.943.438,5.4,1.671c-.82.222-1.278.648-1.362,1.266-.134.983.748,1.505,1.6,2.011.165.1.411.244.615.38C4.432,7.606.961,13.508.8,13.777a1.1,1.1,0,0,0-.132.354c-.1.532-.963,5.258-.564,7.165A6.865,6.865,0,0,0,2.653,24.97a3.776,3.776,0,0,0,2.022.622c1.455.182,1.806.031,1.956-.034a1.126,1.126,0,0,0,.688-1.032,1.1,1.1,0,0,0-1.443-1.042,8.116,8.116,0,0,1-1.888-.258l-.005,0a4.808,4.808,0,0,1-1.73-2.377,25.3,25.3,0,0,1,.539-6.124,82.221,82.221,0,0,1,5.47-8.377,1.538,1.538,0,0,0,.421-1.283A2.454,2.454,0,0,0,7.4,3.459c4.707-.926,12.727-1.265,18.611-1.265,9.048,0,10.737.636,18.853,3.69l.167.063c.776.339,18.042,7.871,20.891,9.2a2.632,2.632,0,0,1,1.445,1.734l1.145,4.416a3.509,3.509,0,0,1-.865,2.9,5.911,5.911,0,0,1-2.985,2.036H59.81a7.364,7.364,0,0,0-14.64,0H29.151a3.794,3.794,0,0,0-3.79,3.79v3.314a1.1,1.1,0,1,0,2.194,0V30.019a1.6,1.6,0,0,1,1.6-1.6H67.212a1.6,1.6,0,0,1,1.595,1.6V51.945H46.222a1.1,1.1,0,1,0,0,2.194H68.806v1.343a1.6,1.6,0,0,1-1.595,1.6H46.222a1.1,1.1,0,0,0,0,2.194h7.823V63.9a4.868,4.868,0,0,0,.817,2.706h-8.64a1.1,1.1,0,0,0,0,2.194H61.832a1.1,1.1,0,1,0,0-2.194H58.945A2.709,2.709,0,0,1,56.239,63.9V59.271H67.211A3.794,3.794,0,0,0,71,55.482V30.019a3.8,3.8,0,0,0-2.477-3.555ZM5.141,24.338c-.005.03-.009.062-.012.093C5.132,24.4,5.136,24.368,5.141,24.338ZM52.49,21.863A5.179,5.179,0,0,1,57.6,26.229H47.383a5.178,5.178,0,0,1,5.108-4.366Zm0,0" transform="translate(0)" fill="#fff"/></g></g></svg>