<svg xmlns="http://www.w3.org/2000/svg" width="125" height="125" viewBox="0 0 125 125"><g transform="translate(-391 -1862)"><circle cx="62.5" cy="62.5" r="62.5" transform="translate(391 1862)" fill="#80cab6"/><g transform="translate(415 1822.194)"><path d="M76.177,172.068a8.494,8.494,0,0,0,3.589-16.192,10.853,10.853,0,0,0-14.038-14.024,17.227,17.227,0,0,0-34.219-.4,10.852,10.852,0,0,0-15.275,13.936,8.494,8.494,0,0,0,2.26,16.681H76.177Z" transform="translate(-8.482 -43.78)" fill="#66e0f7"/><circle cx="5.225" cy="5.225" r="5.225" transform="translate(9.713 76.324)" fill="#66e0f7"/><g transform="translate(0 74.806)"><path d="M73.11,146.673a12.369,12.369,0,0,0-14.63-15.257,18.747,18.747,0,0,0-36.592-.651,12.374,12.374,0,0,0-16.1,15.249A10.011,10.011,0,0,0,10.011,165.1H32.023a1.518,1.518,0,1,0,0-3.035H10.011a6.976,6.976,0,0,1-1.857-13.7,1.518,1.518,0,0,0,.976-2.1,9.334,9.334,0,0,1,13.138-11.987,1.518,1.518,0,0,0,2.264-1.123,15.709,15.709,0,0,1,31.2.366,1.518,1.518,0,0,0,2.056,1.26,9.335,9.335,0,0,1,12.075,12.063,1.518,1.518,0,0,0,.774,1.92,6.976,6.976,0,0,1-2.947,13.3H45.683a1.518,1.518,0,0,0,0,3.035H67.695a10.01,10.01,0,0,0,5.416-18.43Z" transform="translate(0 -110.103)"/><path d="M328.3,305.274a4.468,4.468,0,0,0-4.409-4.409,4.416,4.416,0,0,0-4.326,3.556,1.518,1.518,0,1,0,2.978.585A1.374,1.374,0,0,1,323.9,303.9a1.448,1.448,0,0,1,1.373,1.374,4.566,4.566,0,0,1-.98,2.016c-3.568,5.066-3.994,5.657-4.01,5.679a1.518,1.518,0,0,0,1.229,2.408h5.758a1.518,1.518,0,0,0,0-3.035h-2.824c.569-.806,1.325-1.878,2.329-3.3A6.734,6.734,0,0,0,328.3,305.274Z" transform="translate(-271.044 -266.556)"/><path d="M185.386,225.5a10.168,10.168,0,1,0,10.168,10.168A10.18,10.18,0,0,0,185.386,225.5Zm0,17.3a7.133,7.133,0,1,1,7.133-7.133A7.141,7.141,0,0,1,185.386,242.8Z" transform="translate(-148.625 -202.631)"/><path d="M60.743,88.291A6.743,6.743,0,1,0,54,81.549a6.75,6.75,0,0,0,6.743,6.743Zm0-10.45a3.707,3.707,0,1,1-3.707,3.707A3.711,3.711,0,0,1,60.743,77.842Z" transform="translate(-45.804 -74.806)"/><circle cx="1.518" cy="1.518" r="1.518" transform="translate(37.335 51.964)"/></g></g></g></svg>