<svg xmlns="http://www.w3.org/2000/svg" width="125" height="125" viewBox="0 0 125 125"><g transform="translate(552 9838)"><circle cx="62.5" cy="62.5" r="62.5" transform="translate(-552 -9838)" fill="#80cab6"/><g transform="translate(-519.997 -9805.007)"><g transform="translate(-1)"><g transform="translate(1)"><path d="M59,30a28.652,28.652,0,0,1-5.78,17.35l-2.34-3.59v-.01a25,25,0,1,0-29.14,9.84l-1.4,2.15a2.071,2.071,0,0,0-.31,1.49A29,29,0,1,1,59,30Z" fill="#9e9e9e"/><path d="M55,30a24.894,24.894,0,0,1-4.12,13.75L41.29,28.97a2.14,2.14,0,0,0-3.58,0L21.74,53.59A25,25,0,1,1,55,30Z" fill="#f5f5f5"/><path d="M34.71,28.97,19.376,52.609a24.64,24.64,0,0,0,2.364.981L37.71,28.97a2.039,2.039,0,0,1,.29-.34,2.134,2.134,0,0,0-3.29.34Z" fill="#cfd8dc"/><path d="M30,5c-.5,0-1,.019-1.5.049A24.973,24.973,0,0,1,49.288,41.3l1.592,2.45A25,25,0,0,0,30,5Z" fill="#cfd8dc"/><path d="M17,18h4v6H17a2,2,0,0,1-2-2V20A2,2,0,0,1,17,18Z" fill="#00bcd4"/><path d="M21,18h6v6H21Z" fill="#00bcd4"/><path d="M27,18h6v6H27Z" fill="#00bcd4"/><path d="M33,18h6v6H33Z" fill="#00bcd4"/><path d="M39,18h4a2,2,0,0,1,2,2v2a2,2,0,0,1-2,2H39Z" fill="#00bcd4"/><rect width="5" height="8" rx="1" transform="translate(14 35)" fill="#37474f"/><path d="M28,36a1,1,0,0,0-1-1H24a1,1,0,0,0-1,1v6a1,1,0,0,0,1,1h3a1,1,0,0,0,1-1V36.59" fill="#37474f"/><path d="M56.87,59H22.13a2.111,2.111,0,0,1-2.1-1.77,2.071,2.071,0,0,1,.31-1.49l1.4-2.15L37.71,28.97a2.14,2.14,0,0,1,3.58,0l9.59,14.78v.01l2.34,3.59,5.44,8.39A2.116,2.116,0,0,1,56.87,59Z" fill="#ffdc00"/><path d="M58.66,55.74l-5.44-8.39-2.34-3.59v-.01L41.29,28.97A2.134,2.134,0,0,0,38,28.63a2.039,2.039,0,0,1,.29.34l9.59,14.78v.01l2.34,3.59,5.44,8.39A2.116,2.116,0,0,1,53.87,59h3a2.116,2.116,0,0,0,1.79-3.26Z" fill="#fec108"/><path d="M35,56l2-8-4-2,9-10-2,8,4,2Z" fill="#f5f5f5"/></g><path d="M16.692,56.379a1,1,0,1,0,.955-1.758A28,28,0,1,1,55.708,43.188a1,1,0,1,0,1.764.944,30,30,0,1,0-40.78,12.247Z"/><path d="M53.651,40.651a1,1,0,0,0,1.311-.533,26.006,26.006,0,1,0-36.41,12.711,1,1,0,1,0,.957-1.757,23.984,23.984,0,1,1,33.609-11.73,1,1,0,0,0,.533,1.309Z"/><path d="M44,25a3,3,0,0,0,3-3V20a3,3,0,0,0-3-3H18a3,3,0,0,0-3,3v2a3,3,0,0,0,3,3Zm1-5v2a1,1,0,0,1-1,1H41V19h3A1,1,0,0,1,45,20ZM17,22V20a1,1,0,0,1,1-1h3v4H18A1,1,0,0,1,17,22Zm6-3h4v4H23Zm6,0h4v4H29Zm6,0h4v4H35Z"/><path d="M47.72,31H51a1,1,0,0,0,0-2H47.72a1,1,0,0,0,0,2Z"/><path d="M34.28,30a1,1,0,0,0-1-1H11a1,1,0,0,0,0,2H33.28A1,1,0,0,0,34.28,30Z"/><path d="M16,34a2,2,0,0,0-2,2v6a2,2,0,0,0,2,2h3a2,2,0,0,0,2-2V36a2,2,0,0,0-2-2Zm0,8V36h3v6Z"/><path d="M29,37.59a1,1,0,0,0,1-1V36a2,2,0,0,0-2-2H25a2,2,0,0,0-2,2v7a1,1,0,0,0,2,0V36h3v.59A1,1,0,0,0,29,37.59Z"/><path d="M43.127,28.424a3.134,3.134,0,0,0-5.253,0L20.505,55.194a3.065,3.065,0,0,0-.124,3.174A3.124,3.124,0,0,0,23.131,60H57.869a3.127,3.127,0,0,0,2.751-1.633,3.063,3.063,0,0,0-.124-3.173ZM58.862,57.412a1.112,1.112,0,0,1-.993.588H23.131a1.112,1.112,0,0,1-.992-.587,1.08,1.08,0,0,1,.044-1.13l17.369-26.77a1.133,1.133,0,0,1,1.9,0l17.369,26.77a1.078,1.078,0,0,1,.041,1.129Z"/><path d="M45.447,45.1l-3.282-1.641,1.8-7.221a1,1,0,0,0-1.713-.912l-9,10a1,1,0,0,0,.3,1.564l3.282,1.641-1.8,7.221a1,1,0,0,0,1.713.912l9-10a1,1,0,0,0-.3-1.564Zm-7.5,7.239,1.026-4.1a1,1,0,0,0-.523-1.138l-2.825-1.412,5.434-6.037-1.026,4.1a1,1,0,0,0,.523,1.138l2.825,1.412Z"/></g></g></g></svg>