<svg xmlns="http://www.w3.org/2000/svg" width="125" height="125" viewBox="0 0 125 125"><g transform="translate(-1092 -1862)"><circle cx="62.5" cy="62.5" r="62.5" transform="translate(1092 1862)" fill="#80cab6"/><g transform="translate(1125 1895.284)"><path d="M227.78,113.987V102.566h-14.22v11.421a17.5,17.5,0,1,0,14.22,0Zm0,0" transform="translate(-179.566 -90.208)" fill="#c9fff7"/><path d="M261.562,261.968a13.957,13.957,0,1,1-23.626-10.062h19.338a13.973,13.973,0,0,1,4.288,10.062Zm0,0" transform="translate(-206.501 -222.197)" fill="#f7d360"/><path d="M216.757,127.455v-3.161a3.1,3.1,0,0,1,3.1-3.1h7.924V117.8H213.56v9.651a17.5,17.5,0,0,0,6.987,33.489c-5.262-.122-9.507-7.908-9.507-17.5C211.04,136.315,213.389,130.18,216.757,127.455Zm0,0" transform="translate(-179.566 -103.676)" fill="#72cec0"/><path d="M240.649,274.063a13.949,13.949,0,0,1-2.711-22.157h1.79a28.159,28.159,0,0,0-1.752,10.062A26.454,26.454,0,0,0,240.649,274.063Zm0,0" transform="translate(-206.502 -222.196)" fill="#e58e13"/><path d="M41.85,196.436,30.486,176.753V166.57h-10.8v10.183L8.323,196.436a5.073,5.073,0,0,0,4.393,7.609H37.457a5.073,5.073,0,0,0,4.393-7.609Zm0,0" transform="translate(-6.748 -146.776)" fill="#e6e6e6"/><path d="M30.483,166.57h-10.8v10.183L8.32,196.436a5.072,5.072,0,0,0,4.392,7.609h6.754c-1.773,0-2.881-4.227-2-7.609l5.161-19.683v-5.227a1.945,1.945,0,0,1,1.945-1.945h5.906Zm0,0" transform="translate(-6.745 -146.775)" fill="#ccc"/><path d="M96.287,129.247a2.3,2.3,0,0,1-2.3,2.3H79.958a2.3,2.3,0,0,1,0-4.6H93.985a2.3,2.3,0,0,1,2.3,2.3Zm0,0" transform="translate(-68.634 -111.755)" fill="#ccc"/><path d="M138.748,129.247a2.3,2.3,0,0,1-2.3,2.3H128a2.3,2.3,0,0,1,0-4.6h8.445a2.3,2.3,0,0,1,2.3,2.3Zm0,0" transform="translate(-111.095 -111.755)" fill="#e6e6e6"/><path d="M282.08,80.485a2.3,2.3,0,0,1-2.3,2.3H262.426a2.3,2.3,0,0,1,0-4.6h17.352a2.3,2.3,0,0,1,2.3,2.3Zm0,0" transform="translate(-229.902 -68.658)" fill="#72cec0"/><path d="M322.995,80.485a2.3,2.3,0,0,1-2.3,2.3H308.72a2.3,2.3,0,1,1,0-4.6h11.973a2.3,2.3,0,0,1,2.3,2.3Zm0,0" transform="translate(-270.816 -68.658)" fill="#c9fff7"/><path d="M65.712,330.37a1.482,1.482,0,0,1-1.326.766H39.645a1.532,1.532,0,0,1-1.327-2.3l8.351-14.464H57.362l8.35,14.464a1.481,1.481,0,0,1,0,1.531Zm0,0" transform="translate(-33.677 -277.408)" fill="#fc5f61"/><path d="M44.4,327.068a10.5,10.5,0,0,0-.2,4.067H39.645a1.532,1.532,0,0,1-1.327-2.3l8.351-14.464H47.73Zm0,0" transform="translate(-33.676 -277.408)" fill="#e83842"/><path d="M49.1,85.144V83.377a.885.885,0,1,0-1.77,0v2.332a.886.886,0,0,0,.525.809,16.617,16.617,0,0,1-12.173,30.89c.065-.1.128-.2.188-.3a6.064,6.064,0,0,0,.563-1.316A14.844,14.844,0,0,0,55.946,101.7,14.931,14.931,0,0,0,51.387,91a.886.886,0,0,0-.614-.248H31.435a.886.886,0,0,0-.614.247,14.854,14.854,0,0,0-3.533,5.284l-1.1-1.9a16.635,16.635,0,0,1,8.166-7.863.885.885,0,0,0,.525-.809V76.944H47.328v2.891a.885.885,0,1,0,1.77,0V76.944h.778a3.187,3.187,0,1,0,0-6.373H46.268a.885.885,0,0,0,0,1.77h3.609a1.416,1.416,0,1,1,0,2.832H32.524a1.416,1.416,0,1,1,0-2.832h10.2a.885.885,0,0,0,0-1.77h-10.2a3.187,3.187,0,1,0,0,6.373h.585v8.2a18.4,18.4,0,0,0-7.965,7.429l-.521-.9V82.609h.728a3.187,3.187,0,1,0,0-6.373H11.325a3.187,3.187,0,1,0,0,6.373h.728V91.67L.808,111.147a5.958,5.958,0,0,0,5.159,8.937h15.16a.885.885,0,1,0,0-1.77H5.968a4.188,4.188,0,0,1-3.626-6.281L13.705,92.35a.887.887,0,0,0,.118-.443v-9.3h9.029v9.3a.887.887,0,0,0,.118.443l11.363,19.682a4.188,4.188,0,0,1-3.626,6.281h-6.04a.885.885,0,0,0,0,1.77h6.04a5.909,5.909,0,0,0,3.682-1.266A18.387,18.387,0,0,0,49.1,85.144ZM12.938,80.839H11.325a1.416,1.416,0,1,1,0-2.832H25.352a1.416,1.416,0,0,1,0,2.832Zm15.536,17.5A13.073,13.073,0,0,1,31.8,92.524h18.61A13.068,13.068,0,0,1,41.1,114.773,12.944,12.944,0,0,1,36.672,114a5.944,5.944,0,0,0-.8-2.851Zm0,0" transform="translate(0 -61.93)"/><path d="M59.741,324.081a2.362,2.362,0,0,0,0-2.417L51.391,307.2a.885.885,0,0,0-.767-.443H39.931a.885.885,0,0,0-.767.443l-8.351,14.463a2.417,2.417,0,0,0,2.093,3.625H57.648a2.362,2.362,0,0,0,2.093-1.208ZM32.347,323.2a.594.594,0,0,1,0-.646l8.095-14.021h9.671l8.095,14.021a.647.647,0,0,1-.56.969H32.907a.594.594,0,0,1-.56-.323Zm0,0" transform="translate(-26.939 -270.675)"/><path d="M168.309,386.639a.885.885,0,1,0-.385,1.111A.892.892,0,0,0,168.309,386.639Zm0,0" transform="translate(-147.25 -340.804)"/><path d="M133.883,75.411a.886.886,0,1,0-.862-.686.893.893,0,0,0,.862.686Zm0,0" transform="translate(-117.546 -64.645)"/><path d="M163.728,46.287a.885.885,0,1,0-.349-1.013A.891.891,0,0,0,163.728,46.287Zm0,0" transform="translate(-144.358 -39.035)"/><path d="M146.873,1.721a.884.884,0,0,0,1.65-.04.885.885,0,1,0-1.65.04Zm0,0" transform="translate(-129.749)"/><path d="M413.139,285.16a.885.885,0,1,0,.333-1.079A.889.889,0,0,0,413.139,285.16Zm0,0" transform="translate(-365.079 -250.51)"/><path d="M419.154,334.75a.885.885,0,1,0,.99.53A.892.892,0,0,0,419.154,334.75Zm0,0" transform="translate(-369.833 -295.401)"/><path d="M319.061,393.335a.885.885,0,1,0,.4-1.12A.893.893,0,0,0,319.061,393.335Zm0,0" transform="translate(-281.932 -346.114)"/><path d="M284.65,328.112a.885.885,0,1,0,.984.513A.9.9,0,0,0,284.65,328.112Zm0,0" transform="translate(-250.949 -289.534)"/><path d="M376.966,311.049a.884.884,0,1,0,.325-1.074A.888.888,0,0,0,376.966,311.049Zm0,0" transform="translate(-333.109 -273.389)"/><path d="M114.964,402.32a.885.885,0,1,0-.355,1.094.894.894,0,0,0,.355-1.094Zm0,0" transform="translate(-100.101 -354.652)"/><path d="M133.8,352.494a.885.885,0,1,0,.959.463A.892.892,0,0,0,133.8,352.494Zm0,0" transform="translate(-117.625 -311.083)"/></g></g></svg>