<svg xmlns="http://www.w3.org/2000/svg" width="112" height="112" viewBox="0 0 112 112"><g transform="translate(-744 -11034)"><circle cx="56" cy="56" r="56" transform="translate(744 11034)" fill="#80cab6"/><g transform="translate(768 11058)"><path d="M54,26V2H22V8.667L34,13l3,8,6,5L32,25l-3.381-6.639L22,17.158V26A15.993,15.993,0,0,0,36,41.862V53a5,5,0,0,1-5,5,4,4,0,0,0-4,4H49a4,4,0,0,0-4-4,5,5,0,0,1-5-5V41.862A15.993,15.993,0,0,0,54,26Z" fill="#c7e2fb"/><path d="M22,2V8.667L34,13l3,8,6,5L32,25l-3.381-6.639L22,17.158V26a15.882,15.882,0,0,0,2.159,8H38A11,11,0,0,0,49,23V2Z" fill="#ebf7fe"/><path d="M16,9,14,4l4-2Z" fill="#c7e2fb"/><path d="M12,16l5,2,2-4Z" fill="#c7e2fb"/><path d="M54,1H22a1,1,0,0,0-1,1V8.667a1,1,0,0,0,.66.94l11.566,4.177,2.837,7.567a1.009,1.009,0,0,0,.3.417L39.9,24.713l-7.253-.659-3.13-6.146a1,1,0,0,0-.713-.531l-6.619-1.2A1,1,0,0,0,21,17.158V26A17.011,17.011,0,0,0,35,42.721V53a4,4,0,0,1-4,4,5.006,5.006,0,0,0-5,5,1,1,0,0,0,1,1H49a1,1,0,0,0,1-1,5.006,5.006,0,0,0-5-5,4,4,0,0,1-4-4V42.721A17.011,17.011,0,0,0,55,26V2A1,1,0,0,0,54,1ZM23,7.965V3H44V8.586L40.586,12H34.175ZM53,26A15.006,15.006,0,0,1,39.876,40.869a1,1,0,0,0-.876.992V53a6.006,6.006,0,0,0,6,6,3.006,3.006,0,0,1,2.829,2H28.171A3.006,3.006,0,0,1,31,59a6.006,6.006,0,0,0,6-6V41.861a1,1,0,0,0-.876-.992A15.006,15.006,0,0,1,23,26V18.356l4.953.9,3.156,6.2a1,1,0,0,0,.8.542l11,1a1,1,0,0,0,.73-1.764l-5.8-4.831-2.4-6.4h5.143l2.707,2.707A1,1,0,0,0,44,17h5V15H44.414l-2-2,3.293-3.293A1,1,0,0,0,46,9V3h7Z"/><path d="M30,29h2v2H30Z"/><path d="M45,20h2v2H45Z"/><path d="M34,7h2V9H34Z"/><path d="M15.071,9.372A1,1,0,0,0,16,10h.051a1,1,0,0,0,.91-.724l2-7a1,1,0,0,0-1.408-1.17l-4,2a1,1,0,0,0-.482,1.267Zm1.343-5.461-.572,2-.572-1.43Z"/><path d="M18.725,13.039l-7,2a1,1,0,0,0-.1,1.89l5,2A1.015,1.015,0,0,0,17,19a1,1,0,0,0,.9-.553l2-4a1,1,0,0,0-1.17-1.408ZM16.517,16.73l-1.43-.572,2-.572Z"/><path d="M16,22h2v2H16Z"/><path d="M10,10h2v2H10Z"/></g></g></svg>