<svg xmlns="http://www.w3.org/2000/svg" width="112" height="112" viewBox="0 0 112 112"><g transform="translate(-324 -11034)"><circle cx="56" cy="56" r="56" transform="translate(324 11034)" fill="#80cab6"/><g transform="translate(347 11056.999)"><g transform="translate(0.957 0.958)"><g transform="translate(4.247 11.553)"><path d="M44.583,114.778l-3.7-7.305a.942.942,0,0,1,.892-1.366l2.2.121a14.658,14.658,0,0,1,8.845-8.089,1.914,1.914,0,0,1,1.216,3.63,10.861,10.861,0,0,0-5.878,4.688l1.791.1a.942.942,0,0,1,.737,1.455l-4.477,6.856A.942.942,0,0,1,44.583,114.778Z" transform="translate(-40.78 -98.039)" fill="#fe5694"/><path d="M367.838,114.778l3.7-7.305a.942.942,0,0,0-.892-1.366l-2.2.121a14.658,14.658,0,0,0-8.845-8.089,1.914,1.914,0,0,0-1.216,3.63,10.861,10.861,0,0,1,5.878,4.688l-1.791.1a.942.942,0,0,0-.737,1.455l4.477,6.856A.942.942,0,0,0,367.838,114.778Z" transform="translate(-316.715 -98.039)" fill="#fe5694"/></g><path d="M40.363,352.87v14.746a2.114,2.114,0,0,1-2.113,2.113h-12.9a2.113,2.113,0,0,1-2.113-2.113V352.87l8.561-2.853Z" transform="translate(-21.232 -306.31)" fill="#60b7ff"/><path d="M40.363,352.87v2.83H23.24v-2.83l8.561-2.853Z" transform="translate(-21.231 -306.31)" fill="#26a6fe"/><path d="M46.755,285.631H36.079a1.817,1.817,0,0,1-1.817-1.817v-5.022a4.119,4.119,0,0,1,4.115-4.115h6.081a4.119,4.119,0,0,1,4.115,4.115v5.022A1.817,1.817,0,0,1,46.755,285.631ZM37.9,282h7.042v-3.2a.481.481,0,0,0-.481-.481H38.377a.481.481,0,0,0-.481.481Z" transform="translate(-30.847 -240.585)" fill="#7a6d79"/><path d="M29.19,369.73H25.353a2.114,2.114,0,0,1-2.113-2.114V352.87l8.561-2.853-4.724,2.853v14.745A2.114,2.114,0,0,0,29.19,369.73Z" transform="translate(-21.232 -306.31)" fill="#26a6fe"/><path d="M26.963,333.361H9.177A1.677,1.677,0,0,1,7.5,331.684v-2.353a1.677,1.677,0,0,1,1.677-1.677H26.963a1.677,1.677,0,0,1,1.677,1.677v2.353A1.677,1.677,0,0,1,26.963,333.361Z" transform="translate(-7.5 -286.801)" fill="#60b7ff"/><path d="M13.014,333.354H9.177A1.676,1.676,0,0,1,7.5,331.677v-2.353a1.677,1.677,0,0,1,1.677-1.678h3.837a1.678,1.678,0,0,0-1.677,1.678v2.353A1.677,1.677,0,0,0,13.014,333.354Z" transform="translate(-7.5 -286.794)" fill="#26a6fe"/><path d="M206.027,352.869l-8.562-2.854-8.562,2.853v14.746a2.114,2.114,0,0,0,2.114,2.114h12.9a2.114,2.114,0,0,0,2.114-2.114Z" transform="translate(-165.755 -306.309)" fill="#fee45a"/><path d="M206.03,352.87v2.83H188.907v-2.83l8.561-2.853Z" transform="translate(-165.759 -306.31)" fill="#ffd15b"/><path d="M194.857,369.73H191.02a2.114,2.114,0,0,1-2.113-2.114V352.87l8.561-2.853-4.724,2.853v14.745A2.114,2.114,0,0,0,194.857,369.73Z" transform="translate(-165.759 -306.31)" fill="#ffd15b"/><path d="M212.421,285.631H201.745a1.817,1.817,0,0,1-1.817-1.817v-5.022a4.119,4.119,0,0,1,4.115-4.115h6.081a4.119,4.119,0,0,1,4.115,4.115v5.022A1.817,1.817,0,0,1,212.421,285.631ZM203.562,282H210.6v-3.2a.481.481,0,0,0-.481-.481h-6.081a.481.481,0,0,0-.481.481Z" transform="translate(-175.373 -240.585)" fill="#7a6d79"/><path d="M192.63,333.361H174.844a1.677,1.677,0,0,1-1.677-1.677v-2.353a1.677,1.677,0,0,1,1.677-1.677H192.63a1.677,1.677,0,0,1,1.677,1.677v2.353A1.677,1.677,0,0,1,192.63,333.361Z" transform="translate(-152.027 -286.801)" fill="#fee45a"/><path d="M178.681,333.354h-3.837a1.676,1.676,0,0,1-1.677-1.677v-2.353a1.677,1.677,0,0,1,1.677-1.678h3.837A1.678,1.678,0,0,0,177,329.324v2.353A1.677,1.677,0,0,0,178.681,333.354Z" transform="translate(-152.027 -286.794)" fill="#ffd15b"/><path d="M371.693,352.869l-8.562-2.853-8.562,2.853v14.746a2.114,2.114,0,0,0,2.114,2.114h12.9a2.114,2.114,0,0,0,2.114-2.114Z" transform="translate(-310.281 -306.309)" fill="#0ed2b3"/><path d="M371.7,352.87v2.83H354.573v-2.83l8.561-2.853Z" transform="translate(-310.285 -306.31)" fill="#0ab69f"/><path d="M360.523,369.73h-3.837a2.114,2.114,0,0,1-2.113-2.114V352.87l8.561-2.853-4.724,2.853v14.745A2.114,2.114,0,0,0,360.523,369.73Z" transform="translate(-310.285 -306.31)" fill="#0ab69f"/><path d="M378.088,285.631H367.412a1.817,1.817,0,0,1-1.817-1.817v-5.022a4.119,4.119,0,0,1,4.115-4.115h6.081a4.119,4.119,0,0,1,4.115,4.115v5.022A1.817,1.817,0,0,1,378.088,285.631ZM369.229,282h7.042v-3.2a.481.481,0,0,0-.481-.481H369.71a.481.481,0,0,0-.481.481Z" transform="translate(-319.9 -240.585)" fill="#7a6d79"/><path d="M358.3,333.361H340.511a1.677,1.677,0,0,1-1.677-1.677v-2.353a1.677,1.677,0,0,1,1.677-1.677H358.3a1.677,1.677,0,0,1,1.677,1.677v2.353A1.677,1.677,0,0,1,358.3,333.361Z" transform="translate(-296.554 -286.801)" fill="#0ed2b3"/><path d="M344.347,333.354H340.51a1.676,1.676,0,0,1-1.677-1.677v-2.353a1.677,1.677,0,0,1,1.677-1.678h3.837a1.678,1.678,0,0,0-1.677,1.678v2.353A1.677,1.677,0,0,0,344.347,333.354Z" transform="translate(-296.553 -286.794)" fill="#0ab69f"/><g transform="translate(6.726 51.448)"><circle cx="3.844" cy="3.844" r="3.844" fill="#f5f8f9"/><path d="M234.335,413.214h-4.814a1.114,1.114,0,0,0-1.114,1.114v4.814a1.114,1.114,0,0,0,1.114,1.114h4.814a1.114,1.114,0,0,0,1.114-1.114v-4.814A1.114,1.114,0,0,0,234.335,413.214Z" transform="translate(-206.944 -412.891)" fill="#f5f8f9"/><path d="M393.056,412.728,390.01,418a1.01,1.01,0,0,0,.874,1.514h6.092A1.01,1.01,0,0,0,397.85,418l-3.046-5.276A1.01,1.01,0,0,0,393.056,412.728Z" transform="translate(-347.807 -412.027)" fill="#f5f8f9"/></g><g transform="translate(23.527)"><path d="M207.515,19.2,203,11.741l1.143-2.512a1.217,1.217,0,0,0-1.835-1.48,3.769,3.769,0,0,1-4.505,0,1.217,1.217,0,0,0-1.835,1.48l1.143,2.512L192.6,19.2a4.961,4.961,0,0,0,4.244,7.53h6.428A4.961,4.961,0,0,0,207.515,19.2Z" transform="translate(-191.874 -7.5)" fill="#7a6d79"/><path d="M198.964,26.738h-2.118a4.962,4.962,0,0,1-4.245-7.53l4.513-7.456-1.143-2.513a1.222,1.222,0,0,1,1.113-1.728,1.2,1.2,0,0,1,.723.248,3.767,3.767,0,0,0,.857.479,3.26,3.26,0,0,0,0,1l.389,2.513-1.538,7.456C196.836,22.514,197.647,26.738,198.964,26.738Z" transform="translate(-191.876 -7.509)" fill="#685e68"/></g><path d="M219.847,118v6.458h-2.11a.982.982,0,0,0-.851,1.474l4.024,6.969a.982.982,0,0,0,1.7,0l4.025-6.969a.983.983,0,0,0-.851-1.474h-2.11V118a1.914,1.914,0,1,0-3.828,0Z" transform="translate(-190.051 -102.233)" fill="#fe5694"/></g><g transform="translate(0 0.001)"><path d="M37.177,108.662a1.88,1.88,0,0,0,1.59,1.038c.036,0,.072,0,.108,0a1.878,1.878,0,0,0,1.586-.861l4.477-6.856a1.9,1.9,0,0,0-1.486-2.934l-.038,0a10,10,0,0,1,4.376-2.922,2.871,2.871,0,1,0-1.823-5.445,15.51,15.51,0,0,0-9.138,8L35.275,98.6a1.9,1.9,0,0,0-1.8,2.754Zm.2-8.027a.959.959,0,0,0,.93-.573A13.631,13.631,0,0,1,46.574,92.5a.957.957,0,1,1,.608,1.815,11.881,11.881,0,0,0-6.393,5.1.957.957,0,0,0,.766,1.451l1.765.1-4.449,6.812L35.2,100.516Z" transform="translate(-29.023 -78.981)"/><path d="M351.529,96.129A10,10,0,0,1,355.9,99.05l-.038,0a1.9,1.9,0,0,0-1.486,2.934l4.477,6.856a1.878,1.878,0,0,0,1.586.861l.108,0a1.879,1.879,0,0,0,1.59-1.038l3.7-7.305a1.9,1.9,0,0,0-1.8-2.754l-1.554.085a15.51,15.51,0,0,0-9.138-8,2.871,2.871,0,1,0-1.823,5.445Zm0-3.026a.957.957,0,0,1,1.211-.6,13.63,13.63,0,0,1,8.272,7.563.957.957,0,0,0,.93.573l2.177-.119-3.676,7.258L356,100.962l1.765-.1a.957.957,0,0,0,.766-1.451,11.881,11.881,0,0,0-6.393-5.1.957.957,0,0,1-.6-1.211Z" transform="translate(-304.961 -78.981)"/><path d="M62.7,273.94h-.78v-1.689a5.077,5.077,0,0,0-5.072-5.071h-6.08a5.077,5.077,0,0,0-5.071,5.071v1.689h-.781a2.622,2.622,0,0,0-1.677.6,2.622,2.622,0,0,0-1.677-.6h-.781v-1.689a5.077,5.077,0,0,0-5.071-5.071H29.626a5.077,5.077,0,0,0-5.071,5.071v1.689h-.781a2.621,2.621,0,0,0-1.677.6,2.622,2.622,0,0,0-1.677-.6h-.781v-1.689a5.077,5.077,0,0,0-5.071-5.071H10.72a.957.957,0,1,0,0,1.914h3.847a3.16,3.16,0,0,1,3.157,3.157v1.689H16.005v-1.689a1.439,1.439,0,0,0-1.438-1.437H8.487a1.439,1.439,0,0,0-1.438,1.437v1.689H5.329v-1.689a3.142,3.142,0,0,1,1.511-2.693.957.957,0,1,0-1-1.631,5.044,5.044,0,0,0-2.422,4.323v1.689h-.78A2.637,2.637,0,0,0,0,276.574v2.353a2.637,2.637,0,0,0,2.008,2.556v13.867a3.074,3.074,0,0,0,3.071,3.071h12.9a3.074,3.074,0,0,0,3.071-3.071V281.482a2.626,2.626,0,0,0,1.051-.526,2.627,2.627,0,0,0,1.051.526v13.867a3.074,3.074,0,0,0,3.071,3.071h12.9a3.074,3.074,0,0,0,3.071-3.071V281.482a2.628,2.628,0,0,0,1.051-.526,2.627,2.627,0,0,0,1.051.526v6.825a.957.957,0,0,0,1.914,0v-6.746H61.411V295.35a1.157,1.157,0,0,1-1.156,1.156h-12.9A1.157,1.157,0,0,1,46.2,295.35v-2.576a.957.957,0,0,0-1.914,0v2.576a3.074,3.074,0,0,0,3.07,3.07h12.9a3.074,3.074,0,0,0,3.07-3.07V281.483a2.637,2.637,0,0,0,2.008-2.556v-2.353A2.637,2.637,0,0,0,62.7,273.94Zm-15.09-1.689a3.16,3.16,0,0,1,3.157-3.157h6.08A3.161,3.161,0,0,1,60,272.251v1.689h-1.72v-1.689a1.439,1.439,0,0,0-1.438-1.437h-6.08a1.439,1.439,0,0,0-1.438,1.437v1.689H47.609Zm8.761,1.689H51.242v-1.211h5.128Zm-29.9-1.689a3.16,3.16,0,0,1,3.157-3.157h6.082a3.16,3.16,0,0,1,3.157,3.157v1.689h-1.72v-1.689a1.438,1.438,0,0,0-1.437-1.437H29.626a1.438,1.438,0,0,0-1.437,1.437v1.689h-1.72Zm8.761,1.689H30.1v-1.211H35.23ZM8.963,272.728h5.128v1.211H8.963Zm10.169,22.621a1.158,1.158,0,0,1-1.157,1.157H5.079a1.158,1.158,0,0,1-1.157-1.157V281.561h15.21Zm1.288-15.7H2.634a.721.721,0,0,1-.72-.72v-2.353a.721.721,0,0,1,.72-.72H20.42a.721.721,0,0,1,.72.72v2.353a.721.721,0,0,1-.72.72Zm19.852,15.7a1.158,1.158,0,0,1-1.157,1.157h-12.9a1.158,1.158,0,0,1-1.157-1.157V281.561h15.21v13.789Zm1.288-15.7H23.774a.721.721,0,0,1-.72-.72v-2.353a.721.721,0,0,1,.72-.72H41.56a.721.721,0,0,1,.72.72v2.353A.721.721,0,0,1,41.56,279.647Zm21.86-.72a.721.721,0,0,1-.72.72H44.914a.721.721,0,0,1-.72-.72v-2.353a.721.721,0,0,1,.72-.72H62.7a.721.721,0,0,1,.72.72Z" transform="translate(0 -233.087)"/><path d="M57.511,412.786a4.8,4.8,0,1,0-4.8-4.8A4.806,4.806,0,0,0,57.511,412.786Zm0-7.687a2.887,2.887,0,1,1-2.887,2.887A2.89,2.89,0,0,1,57.511,405.1Z" transform="translate(-45.984 -351.737)"/><path d="M222.979,414.67h4.814a2.073,2.073,0,0,0,2.071-2.071v-4.814a2.073,2.073,0,0,0-2.071-2.071h-4.814a2.073,2.073,0,0,0-2.071,2.071V412.6A2.073,2.073,0,0,0,222.979,414.67Zm-.157-6.885a.157.157,0,0,1,.157-.157h4.814a.157.157,0,0,1,.157.157V412.6a.157.157,0,0,1-.157.157h-4.814a.157.157,0,0,1-.157-.157Z" transform="translate(-192.719 -353.943)"/><path d="M384.329,413.932h6.092a1.967,1.967,0,0,0,1.7-2.95l-3.046-5.276a1.967,1.967,0,0,0-3.406,0l-3.046,5.276a1.967,1.967,0,0,0,1.7,2.95Zm-.046-1.993,3.046-5.276a.053.053,0,0,1,.091,0l3.046,5.276a.053.053,0,0,1-.046.079h-6.092a.053.053,0,0,1-.046-.079Z" transform="translate(-333.569 -353.079)"/><path d="M190.277,21.143h.343v1.086h-1.153a1.94,1.94,0,0,0-1.68,2.909l4.024,6.969a1.94,1.94,0,0,0,3.359,0l4.025-6.969a1.94,1.94,0,0,0-1.68-2.91h-1.154V21.143h.343a5.832,5.832,0,0,0,4.36-1.912,5.957,5.957,0,0,0,1.542-4.544.957.957,0,0,0-1.906.174,4.039,4.039,0,0,1-1.05,3.079,3.939,3.939,0,0,1-2.946,1.288h-.343v-2.5a2.871,2.871,0,1,0-5.742,0v2.5h-.343a4,4,0,0,1-3.425-6.077l4.234-7H195.9l3.078,5.086a.957.957,0,0,0,1.638-.991l-3.1-5.115.934-2.053A2.147,2.147,0,0,0,197.837.49a2.146,2.146,0,0,0-2.664-.05,2.829,2.829,0,0,1-3.361,0,2.147,2.147,0,0,0-2.664.05,2.147,2.147,0,0,0-.614,2.593l.934,2.053-4.252,7.025a5.918,5.918,0,0,0,5.063,8.983Zm2.257-4.415a.957.957,0,1,1,1.914,0v6.458a.957.957,0,0,0,.957.957h2.111c.011,0,.015,0,.022.013s.006.016,0,.025l-4.025,6.969c-.006.01-.007.013-.022.013s-.016,0-.022-.013l-4.024-6.969c-.006-.01-.007-.013,0-.025s.011-.013.022-.013h2.11a.957.957,0,0,0,.957-.957ZM190.348,1.98a.235.235,0,0,1,.319-.006,4.755,4.755,0,0,0,5.65,0,.235.235,0,0,1,.319.006.236.236,0,0,1,.074.31l-.888,1.952h-4.658l-.888-1.952A.235.235,0,0,1,190.348,1.98Z" transform="translate(-160.825 -0.001)"/></g></g></g></svg>