<svg xmlns="http://www.w3.org/2000/svg" width="130.992" height="131" viewBox="0 0 130.992 131"><g transform="translate(-16 -16)"><path d="M142.162,121.024a6.509,6.509,0,0,0,.463-2.414V70.58a6.557,6.557,0,0,0-6.55-6.55H113.259c-.488-4.08-1.15-8.167-1.975-12.176l-.152-.737,2.814-7.325a4.433,4.433,0,0,0-.481-4.1,4.259,4.259,0,0,0-3.5-1.859H57.452a4.258,4.258,0,0,0-3.5,1.859,4.433,4.433,0,0,0-.48,4.1l2.813,7.325-.152.737a146.244,146.244,0,0,0,0,59.284l.152.737L53.468,119.2a4.448,4.448,0,0,0-.3,1.593H48.748V26.916A10.928,10.928,0,0,0,37.832,16H22.55a6.55,6.55,0,1,0,0,13.1h13.1v93.877a10.928,10.928,0,0,0,10.916,10.916h5.541a8.733,8.733,0,1,0,15.116,0H117.6a8.733,8.733,0,1,0,15.116,0h7.724a6.549,6.549,0,0,0,1.72-12.868ZM116.427,68.4h4.366v6.55h-4.366Zm-4.366,0V79.313h13.1V68.4h10.916a2.186,2.186,0,0,1,2.183,2.183V92.412H107.694V70.58a2.186,2.186,0,0,1,2.183-2.183Zm13.1,39.3V96.778h13.1V118.61a2.186,2.186,0,0,1-2.183,2.183h-26.2a2.186,2.186,0,0,1-2.183-2.183V96.778h4.366v10.916Zm-8.733-4.366v-6.55h4.366v6.55Zm-58.883-61.1a.1.1,0,0,1-.006-.028h52.34a.1.1,0,0,1-.006.028L106.6,50.745l.41,1.989c.771,3.745,1.393,7.561,1.862,11.374a6.56,6.56,0,0,0-5.542,6.472v48.03a6.521,6.521,0,0,0,.376,2.183H57.537a.1.1,0,0,1,.006-.028l3.272-8.519-.41-1.989a141.9,141.9,0,0,1,0-57.523l.41-1.989Zm2.12,100.4a4.366,4.366,0,1,1,4.366-4.366,4.366,4.366,0,0,1-4.366,4.366Zm65.5,0a4.366,4.366,0,1,1,4.366-4.366,4.366,4.366,0,0,1-4.366,4.366Zm15.282-13.1H46.564a6.557,6.557,0,0,1-6.55-6.55V29.1a4.371,4.371,0,0,0-4.366-4.366h-13.1a2.183,2.183,0,0,1,0-4.366H37.832a6.557,6.557,0,0,1,6.55,6.55v93.877a4.371,4.371,0,0,0,4.366,4.366h91.694a2.183,2.183,0,1,1,0,4.366Z" transform="translate(0 0)" fill="#12263f"/><path d="M32,368H42.916v4.366H32Z" transform="translate(-11.634 -255.94)" fill="#12263f"/><path d="M16,400H26.916v4.366H16Z" transform="translate(0 -279.207)" fill="#12263f"/><path d="M48,336h6.55v4.366H48Z" transform="translate(-23.267 -232.672)" fill="#12263f"/><path d="M208,152h30.565v4.366H208Z" transform="translate(-139.603 -98.886)" fill="#12263f"/><path d="M208,352h30.565v4.366H208Z" transform="translate(-139.603 -244.306)" fill="#12263f"/><path d="M245.832,202.916a10.916,10.916,0,1,0-10.916,10.916A10.916,10.916,0,0,0,245.832,202.916Zm-10.916,6.55a6.55,6.55,0,1,1,6.55-6.55A6.55,6.55,0,0,1,234.916,209.466Z" transform="translate(-151.237 -127.97)" fill="#12263f"/><path d="M208,320h13.1v4.366H208Z" transform="translate(-139.603 -221.039)" fill="#12263f"/><path d="M272,320h13.1v4.366H272Z" transform="translate(-186.138 -221.039)" fill="#12263f"/><path d="M413.8,29.1a12.349,12.349,0,0,1-12.335-12.335V16H397.1v.764A12.349,12.349,0,0,1,384.764,29.1H384v4.366h.764A12.349,12.349,0,0,1,397.1,45.8v.764h4.366V45.8A12.349,12.349,0,0,1,413.8,33.466h.764V29.1Zm-14.518,8.452a16.824,16.824,0,0,0-6.269-6.269,16.823,16.823,0,0,0,6.269-6.269,16.824,16.824,0,0,0,6.269,6.269A16.824,16.824,0,0,0,399.282,37.551Z" transform="translate(-267.573)" fill="#12263f"/><path d="M248,16h4.366v6.55H248Z" transform="translate(-168.687)" fill="#12263f"/><path d="M264,40h6.55v4.366H264Z" transform="translate(-180.321 -17.45)" fill="#12263f"/><path d="M248,56h4.366v6.55H248Z" transform="translate(-168.687 -29.084)" fill="#12263f"/><path d="M224,40h6.55v4.366H224Z" transform="translate(-151.237 -17.45)" fill="#12263f"/><path d="M400,152h4.366v4.366H400Z" transform="translate(-279.207 -98.886)" fill="#12263f"/><path d="M336,32h4.366v4.366H336Z" transform="translate(-232.672 -11.634)" fill="#12263f"/></g></svg>